<svg xmlns="http://www.w3.org/2000/svg" xmlns:xlink="http://www.w3.org/1999/xlink" width="500" zoomAndPan="magnify" viewBox="0 0 375 374.999991" height="500" preserveAspectRatio="xMidYMid meet" version="1.0"><defs><g/><clipPath id="ea50685ecb"><path d="M 52.355469 212.898438 L 65.292969 212.898438 L 65.292969 225.839844 L 52.355469 225.839844 Z M 52.355469 212.898438 " clip-rule="nonzero"/></clipPath><clipPath id="4aa8cdb279"><path d="M 58.824219 216.09375 L 59.847656 212.898438 L 59.835938 216.253906 L 61.796875 213.53125 L 60.75 216.71875 L 63.457031 214.738281 L 61.472656 217.445312 L 64.660156 216.394531 L 61.9375 218.359375 L 65.289062 218.34375 L 62.097656 219.371094 L 65.292969 220.394531 L 61.9375 220.382812 L 64.660156 222.34375 L 61.476562 221.292969 L 63.457031 224 L 60.75 222.019531 L 61.796875 225.203125 L 59.835938 222.484375 L 59.847656 225.835938 L 58.824219 222.644531 L 57.800781 225.839844 L 57.8125 222.484375 L 55.851562 225.207031 L 56.898438 222.023438 L 54.191406 224 L 56.171875 221.292969 L 52.988281 222.34375 L 55.710938 220.382812 L 52.355469 220.394531 L 55.546875 219.371094 L 52.355469 218.34375 L 55.707031 218.359375 L 52.988281 216.394531 L 56.171875 217.445312 L 54.191406 214.738281 L 56.898438 216.71875 L 55.851562 213.535156 L 57.8125 216.257812 L 57.800781 212.898438 Z M 58.824219 216.09375 " clip-rule="nonzero"/></clipPath><clipPath id="e4777c748f"><path d="M 309.707031 212.898438 L 322.644531 212.898438 L 322.644531 225.839844 L 309.707031 225.839844 Z M 309.707031 212.898438 " clip-rule="nonzero"/></clipPath><clipPath id="1cd89e3a5e"><path d="M 316.175781 216.09375 L 317.203125 212.898438 L 317.1875 216.253906 L 319.148438 213.53125 L 318.101562 216.71875 L 320.808594 214.738281 L 318.828125 217.445312 L 322.011719 216.394531 L 319.289062 218.359375 L 322.644531 218.34375 L 319.453125 219.371094 L 322.644531 220.394531 L 319.292969 220.382812 L 322.015625 222.34375 L 318.828125 221.292969 L 320.808594 224 L 318.101562 222.019531 L 319.148438 225.203125 L 317.1875 222.484375 L 317.203125 225.835938 L 316.175781 222.644531 L 315.152344 225.839844 L 315.164062 222.484375 L 313.203125 225.207031 L 314.25 222.023438 L 311.542969 224 L 313.527344 221.292969 L 310.339844 222.34375 L 313.0625 220.382812 L 309.707031 220.394531 L 312.902344 219.371094 L 309.707031 218.34375 L 313.0625 218.359375 L 310.339844 216.394531 L 313.527344 217.445312 L 311.542969 214.738281 L 314.25 216.71875 L 313.203125 213.535156 L 315.164062 216.257812 L 315.152344 212.898438 Z M 316.175781 216.09375 " clip-rule="nonzero"/></clipPath><clipPath id="16bc4b3bc5"><path d="M 140 138 L 249 138 L 249 247 L 140 247 Z M 140 138 " clip-rule="nonzero"/></clipPath><clipPath id="c8d1d1fed9"><path d="M 238.308594 136.4375 L 251.039062 149.167969 L 144.972656 255.234375 L 132.242188 242.503906 Z M 238.308594 136.4375 " clip-rule="nonzero"/></clipPath><clipPath id="7800b4c6df"><path d="M 238.308594 136.4375 L 251.039062 149.167969 L 144.972656 255.234375 L 132.242188 242.503906 Z M 238.308594 136.4375 " clip-rule="nonzero"/></clipPath><clipPath id="328f713e73"><path d="M 238.363281 136.492188 L 251.070312 149.199219 L 148.902344 251.363281 L 136.199219 238.660156 Z M 238.363281 136.492188 " clip-rule="nonzero"/></clipPath><clipPath id="a01f518208"><path d="M 238.363281 136.492188 L 250.984375 149.113281 L 148.816406 251.277344 L 136.199219 238.660156 Z M 238.363281 136.492188 " clip-rule="nonzero"/></clipPath><clipPath id="3b1863a496"><path d="M 137 210 L 178 210 L 178 250 L 137 250 Z M 137 210 " clip-rule="nonzero"/></clipPath><clipPath id="a33c6b4470"><path d="M 238.308594 136.4375 L 251.039062 149.167969 L 144.972656 255.234375 L 132.242188 242.503906 Z M 238.308594 136.4375 " clip-rule="nonzero"/></clipPath><clipPath id="eddb24d946"><path d="M 238.308594 136.4375 L 251.039062 149.167969 L 144.972656 255.234375 L 132.242188 242.503906 Z M 238.308594 136.4375 " clip-rule="nonzero"/></clipPath><clipPath id="a247ba5516"><path d="M 175 145 L 235 145 L 235 214 L 175 214 Z M 175 145 " clip-rule="nonzero"/></clipPath><clipPath id="ec476fee6f"><path d="M 238.308594 136.4375 L 251.039062 149.167969 L 144.972656 255.234375 L 132.242188 242.503906 Z M 238.308594 136.4375 " clip-rule="nonzero"/></clipPath><clipPath id="3c9d5171c1"><path d="M 238.308594 136.4375 L 251.039062 149.167969 L 144.972656 255.234375 L 132.242188 242.503906 Z M 238.308594 136.4375 " clip-rule="nonzero"/></clipPath><clipPath id="face1b9584"><path d="M 191 204 L 239 204 L 239 252 L 191 252 Z M 191 204 " clip-rule="nonzero"/></clipPath><clipPath id="907250d926"><path d="M 113.921875 160.152344 L 144.683594 129.394531 L 250.75 235.460938 L 219.988281 266.21875 Z M 113.921875 160.152344 " clip-rule="nonzero"/></clipPath><clipPath id="b03c8d6e19"><path d="M 113.921875 160.152344 L 144.683594 129.394531 L 250.75 235.460938 L 219.988281 266.21875 Z M 113.921875 160.152344 " clip-rule="nonzero"/></clipPath><clipPath id="0042cc4a3f"><path d="M 192 207 L 239 207 L 239 252 L 192 252 Z M 192 207 " clip-rule="nonzero"/></clipPath><clipPath id="adaa83f756"><path d="M 113.921875 160.152344 L 144.683594 129.394531 L 250.75 235.460938 L 219.988281 266.21875 Z M 113.921875 160.152344 " clip-rule="nonzero"/></clipPath><clipPath id="69732236a8"><path d="M 113.921875 160.152344 L 144.683594 129.394531 L 250.75 235.460938 L 219.988281 266.21875 Z M 113.921875 160.152344 " clip-rule="nonzero"/></clipPath><clipPath id="f20ecb8629"><path d="M 116 131 L 197 131 L 197 211 L 116 211 Z M 116 131 " clip-rule="nonzero"/></clipPath><clipPath id="88fc56b57f"><path d="M 113.921875 160.152344 L 144.683594 129.394531 L 250.75 235.460938 L 219.988281 266.21875 Z M 113.921875 160.152344 " clip-rule="nonzero"/></clipPath><clipPath id="16b72aabd9"><path d="M 113.921875 160.152344 L 144.683594 129.394531 L 250.75 235.460938 L 219.988281 266.21875 Z M 113.921875 160.152344 " clip-rule="nonzero"/></clipPath><clipPath id="c14ac0d4eb"><path d="M 114.003906 160.074219 L 144.644531 129.429688 L 209.292969 194.078125 L 178.652344 224.722656 Z M 114.003906 160.074219 " clip-rule="nonzero"/></clipPath><clipPath id="42e24394ed"><path d="M 114.003906 160.074219 L 144.601562 129.476562 L 209.25 194.125 L 178.652344 224.722656 Z M 114.003906 160.074219 " clip-rule="nonzero"/></clipPath><clipPath id="cf9ac32d4d"><path d="M 118 131 L 191 131 L 191 208 L 118 208 Z M 118 131 " clip-rule="nonzero"/></clipPath><clipPath id="86e9a9265d"><path d="M 113.921875 160.152344 L 144.683594 129.394531 L 250.75 235.460938 L 219.988281 266.21875 Z M 113.921875 160.152344 " clip-rule="nonzero"/></clipPath><clipPath id="82918072fa"><path d="M 113.921875 160.152344 L 144.683594 129.394531 L 250.75 235.460938 L 219.988281 266.21875 Z M 113.921875 160.152344 " clip-rule="nonzero"/></clipPath></defs><g fill="#000000" fill-opacity="1"><g transform="translate(67.251414, 263.811923)"><g><path d="M 1.316406 2.03125 L 10.8125 -4.132812 L 3.515625 5.417969 L 4.28125 6.597656 L 15.949219 3.84375 L 6.480469 9.988281 L 7.097656 10.933594 L 17.5625 4.140625 L 16.574219 2.617188 L 4.859375 5.386719 L 12.160156 -4.1875 L 11.171875 -5.710938 L 0.703125 1.082031 Z M 1.316406 2.03125 "/></g></g></g><g fill="#000000" fill-opacity="1"><g transform="translate(80.64047, 282.920759)"><g><path d="M 0.953125 1.058594 L 4.296875 -0.261719 L 8.238281 4.113281 L 6.578125 7.304688 L 7.355469 8.167969 L 13.476562 -3.683594 L 12.597656 -4.65625 L 0.175781 0.195312 Z M 12.175781 -3.394531 L 8.75 3.167969 L 5.292969 -0.671875 Z M 12.175781 -3.394531 "/></g></g></g><g fill="#000000" fill-opacity="1"><g transform="translate(94.635787, 297.461449)"><g><path d="M 9.140625 0.273438 C 10.578125 0.875 12 0.546875 13.085938 -0.761719 C 14.574219 -2.542969 14.144531 -4.457031 12.296875 -5.996094 L 8.980469 -8.757812 L 0.992188 0.828125 L 1.859375 1.550781 L 5.335938 -2.621094 L 7.785156 -0.578125 C 7.910156 -0.476562 8.035156 -0.371094 8.160156 -0.289062 L 6.484375 5.402344 L 7.4375 6.199219 Z M 5.964844 -3.375 L 9.199219 -7.257812 L 11.535156 -5.308594 C 12.992188 -4.09375 13.238281 -2.679688 12.210938 -1.445312 C 11.175781 -0.203125 9.78125 -0.191406 8.300781 -1.429688 Z M 5.964844 -3.375 "/></g></g></g><g fill="#000000" fill-opacity="1"><g transform="translate(109.913472, 309.418641)"><g><path d="M 5.425781 3.511719 C 7.699219 4.902344 9.964844 4.582031 11.484375 2.886719 L 10.464844 2.261719 C 9.277344 3.546875 7.585938 3.644531 5.925781 2.628906 C 3.375 1.066406 3.324219 -1.703125 4.921875 -4.3125 C 6.507812 -6.90625 9 -8.125 11.550781 -6.5625 C 13.210938 -5.546875 13.90625 -3.992188 13.410156 -2.550781 L 14.429688 -1.929688 C 15.152344 -3.863281 14.382812 -6.019531 12.109375 -7.410156 C 8.816406 -9.425781 5.726562 -7.789062 3.957031 -4.902344 C 2.191406 -2.015625 2.132812 1.496094 5.425781 3.511719 Z M 5.425781 3.511719 "/></g></g></g><g fill="#000000" fill-opacity="1"><g transform="translate(128.054236, 319.609474)"><g/></g></g><g fill="#000000" fill-opacity="1"><g transform="translate(140.373785, 324.800052)"><g><path d="M 2.304688 0.738281 L 4.066406 -4.757812 L 9.769531 -2.929688 L 10.074219 -3.878906 L 4.371094 -5.707031 L 5.804688 -10.175781 L 12.300781 -8.09375 L 12.609375 -9.058594 L 5.042969 -11.488281 L 1.230469 0.394531 Z M 2.304688 0.738281 "/></g></g></g><g fill="#000000" fill-opacity="1"><g transform="translate(158.310993, 329.989504)"><g><path d="M 6.378906 1.21875 C 10.171875 1.847656 12.46875 -0.824219 13.023438 -4.179688 C 13.578125 -7.535156 12.257812 -10.789062 8.46875 -11.414062 C 4.675781 -12.039062 2.378906 -9.386719 1.824219 -6.03125 C 1.269531 -2.675781 2.585938 0.59375 6.378906 1.21875 Z M 6.542969 0.21875 C 3.589844 -0.269531 2.441406 -2.828125 2.9375 -5.847656 C 3.433594 -8.847656 5.347656 -10.902344 8.300781 -10.414062 C 11.253906 -9.925781 12.40625 -7.363281 11.910156 -4.363281 C 11.410156 -1.347656 9.496094 0.707031 6.542969 0.21875 Z M 6.542969 0.21875 "/></g></g></g><g fill="#000000" fill-opacity="1"><g transform="translate(180.126561, 332.867913)"><g><path d="M 6.492188 0.195312 C 10.335938 0.214844 12.179688 -2.785156 12.199219 -6.1875 C 12.214844 -9.589844 10.398438 -12.589844 6.554688 -12.609375 C 2.710938 -12.628906 0.863281 -9.644531 0.847656 -6.242188 C 0.832031 -2.839844 2.648438 0.175781 6.492188 0.195312 Z M 6.496094 -0.820312 C 3.503906 -0.832031 1.960938 -3.179688 1.976562 -6.238281 C 1.992188 -9.28125 3.554688 -11.609375 6.550781 -11.597656 C 9.542969 -11.582031 11.085938 -9.234375 11.070312 -6.195312 C 11.054688 -3.136719 9.488281 -0.804688 6.496094 -0.820312 Z M 6.496094 -0.820312 "/></g></g></g><g fill="#000000" fill-opacity="1"><g transform="translate(202.095796, 332.234234)"><g><path d="M 4.558594 -0.6875 C 8.636719 -1.300781 10.53125 -3.855469 9.945312 -7.75 C 9.34375 -11.730469 6.789062 -13.644531 2.714844 -13.027344 L -0.582031 -12.53125 L 1.277344 -0.191406 Z M 0.683594 -11.695312 L 2.867188 -12.027344 C 6.019531 -12.503906 8.285156 -11.289062 8.84375 -7.585938 C 9.429688 -3.722656 7.351562 -2.132812 4.410156 -1.691406 L 2.242188 -1.363281 Z M 0.683594 -11.695312 "/></g></g></g><g fill="#000000" fill-opacity="1"><g transform="translate(222.511363, 328.448607)"><g><path d="M 5.492188 -1.664062 L 2.167969 -12.636719 L 6.375 -13.914062 L 6.082031 -14.882812 L -3.402344 -12.007812 L -3.109375 -11.039062 L 1.085938 -12.308594 L 4.414062 -1.339844 Z M 5.492188 -1.664062 "/></g></g></g><g fill="#000000" fill-opacity="1"><g transform="translate(240.775049, 322.261703)"><g><path d="M 4.15625 -8.144531 C 5.3125 -9.1875 5.625 -10.609375 4.910156 -12.15625 C 3.933594 -14.261719 2.023438 -14.691406 -0.15625 -13.679688 L -4.074219 -11.863281 L 1.171875 -0.542969 L 2.195312 -1.019531 L -0.0859375 -5.945312 L 2.804688 -7.285156 C 2.953125 -7.355469 3.101562 -7.421875 3.230469 -7.5 L 7.65625 -3.546875 L 8.785156 -4.070312 Z M -0.5 -6.835938 L -2.625 -11.417969 L 0.136719 -12.699219 C 1.855469 -13.496094 3.242188 -13.109375 3.917969 -11.65625 C 4.597656 -10.1875 4.011719 -8.925781 2.261719 -8.113281 Z M -0.5 -6.835938 "/></g></g></g><g fill="#000000" fill-opacity="1"><g transform="translate(258.097702, 313.563571)"><g><path d="M 4.804688 -2.933594 C 7.367188 -4.601562 7.585938 -6.8125 6.035156 -9.195312 L 1.636719 -15.953125 L 0.691406 -15.339844 L 5.089844 -8.582031 C 6.300781 -6.714844 6.210938 -5.058594 4.25 -3.78125 C 2.292969 -2.507812 0.738281 -3.09375 -0.476562 -4.957031 L -4.875 -11.714844 L -5.820312 -11.101562 L -1.421875 -4.34375 C 0.128906 -1.957031 2.242188 -1.261719 4.804688 -2.933594 Z M 4.804688 -2.933594 "/></g></g></g><g fill="#000000" fill-opacity="1"><g transform="translate(274.696746, 301.9923)"><g><path d="M 4.941406 -4.164062 C 6.933594 -5.933594 7.289062 -8.195312 6.109375 -10.140625 L 5.214844 -9.351562 C 6.097656 -7.835938 5.699219 -6.191406 4.242188 -4.902344 C 2.003906 -2.914062 -0.660156 -3.675781 -2.691406 -5.964844 C -4.710938 -8.238281 -5.148438 -10.976562 -2.910156 -12.964844 C -1.453125 -14.253906 0.238281 -14.464844 1.472656 -13.570312 L 2.363281 -14.363281 C 0.726562 -15.621094 -1.5625 -15.511719 -3.558594 -13.742188 C -6.445312 -11.183594 -5.78125 -7.75 -3.535156 -5.214844 C -1.289062 -2.683594 2.054688 -1.601562 4.941406 -4.164062 Z M 4.941406 -4.164062 "/></g></g></g><g fill="#000000" fill-opacity="1"><g transform="translate(289.864348, 287.581512)"><g><path d="M 1.5625 -1.847656 L -3.1875 -5.859375 L 5.304688 -6.285156 L 6.320312 -7.484375 L -2.585938 -7 L -3.449219 -15.261719 L -4.367188 -14.171875 L -3.5625 -6.175781 L -7.972656 -9.898438 L -8.703125 -9.035156 L 0.832031 -0.988281 Z M 1.5625 -1.847656 "/></g></g></g><g fill="#000000" fill-opacity="1"><g transform="translate(301.609737, 272.748696)"><g><path d="M 3.09375 -4.605469 C 4.601562 -7 4.15625 -9.054688 2.316406 -10.214844 C 0.0742188 -11.625 -1.515625 -10.019531 -2.972656 -8.539062 C -4.203125 -7.285156 -5.363281 -6.121094 -6.746094 -6.992188 C -7.894531 -7.71875 -7.957031 -9.183594 -7.050781 -10.625 C -6.195312 -11.980469 -4.996094 -12.65625 -3.304688 -11.996094 L -2.730469 -12.910156 C -5.003906 -13.875 -6.742188 -13.019531 -7.898438 -11.179688 C -9.136719 -9.214844 -8.980469 -7.066406 -7.28125 -5.996094 C -5.246094 -4.714844 -3.78125 -6.207031 -2.375 -7.644531 C -1.078125 -8.96875 0.164062 -10.234375 1.757812 -9.234375 C 3.125 -8.371094 3.332031 -6.886719 2.277344 -5.214844 C 1.390625 -3.800781 -0.0820312 -2.660156 -2.003906 -3.445312 L -2.613281 -2.476562 C -0.167969 -1.421875 1.835938 -2.613281 3.09375 -4.605469 Z M 3.09375 -4.605469 "/></g></g></g><g fill="#000000" fill-opacity="1"><g transform="translate(72.347746, 199.33322)"><g><path d="M 0.628906 -9.941406 L -11.929688 -10.738281 L -11.117188 -23.589844 L -17.730469 -24.007812 L -18.542969 -11.15625 L -24.449219 -11.53125 L -23.546875 -25.753906 L -30.203125 -26.175781 L -31.578125 -4.507812 L 0.15625 -2.496094 Z M 0.628906 -9.941406 "/></g></g></g><g fill="#000000" fill-opacity="1"><g transform="translate(74.986757, 166.289285)"><g><path d="M 7.214844 -15.644531 C 11.324219 -25.625 6.082031 -33.238281 -2.125 -36.621094 C -10.332031 -40.003906 -19.34375 -38.261719 -23.457031 -28.285156 C -27.601562 -18.226562 -22.417969 -10.679688 -14.210938 -7.300781 C -6.003906 -3.917969 3.070312 -5.585938 7.214844 -15.644531 Z M 1.046875 -18.183594 C -0.855469 -13.558594 -5.621094 -12.277344 -11.210938 -14.582031 C -16.757812 -16.867188 -19.199219 -21.117188 -17.292969 -25.742188 C -15.386719 -30.367188 -10.675781 -31.625 -5.128906 -29.339844 C 0.460938 -27.035156 2.953125 -22.808594 1.046875 -18.183594 Z M 1.046875 -18.183594 "/></g></g></g><g fill="#000000" fill-opacity="1"><g transform="translate(92.126919, 128.216311)"><g><path d="M 12.296875 -12.0625 C 19.683594 -19.933594 17.484375 -28.914062 11.011719 -34.992188 C 4.539062 -41.066406 -4.5 -42.636719 -11.890625 -34.769531 C -19.332031 -26.839844 -17.164062 -17.945312 -10.695312 -11.867188 C -4.222656 -5.792969 4.851562 -4.132812 12.296875 -12.0625 Z M 7.433594 -16.628906 C 4.011719 -12.980469 -0.898438 -13.476562 -5.304688 -17.609375 C -9.679688 -21.71875 -10.449219 -26.558594 -7.027344 -30.203125 C -3.605469 -33.851562 1.246094 -33.355469 5.621094 -29.25 C 10.027344 -25.113281 10.859375 -20.273438 7.433594 -16.628906 Z M 7.433594 -16.628906 "/></g></g></g><g fill="#000000" fill-opacity="1"><g transform="translate(122.004809, 98.830605)"><g><path d="M 10.8125 -5.492188 C 20.472656 -10.402344 23.21875 -18.152344 18.554688 -27.332031 C 13.929688 -36.433594 6.070312 -38.75 -3.589844 -33.84375 L -12.175781 -29.480469 L 2.230469 -1.132812 Z M -2.503906 -26.914062 L -0.644531 -27.859375 C 4.519531 -30.484375 9.167969 -29.339844 11.90625 -23.953125 C 14.832031 -18.191406 13.179688 -14.175781 7.71875 -11.398438 L 5.859375 -10.457031 Z M -2.503906 -26.914062 "/></g></g></g><g fill="#000000" fill-opacity="1"><g transform="translate(156.729212, 82.963209)"><g><path d="M 16.550781 -2.59375 L 12.660156 -27.421875 L 21.511719 -28.808594 L 20.480469 -35.394531 L -4.59375 -31.464844 L -3.5625 -24.878906 L 5.289062 -26.265625 L 9.179688 -1.4375 Z M 16.550781 -2.59375 "/></g></g></g><g fill="#000000" fill-opacity="1"><g transform="translate(190.539753, 78.664963)"><g><path d="M 24.84375 -9.882812 C 27.851562 -11.011719 30.039062 -13.660156 30.667969 -17.65625 C 31.746094 -24.488281 28.003906 -27.777344 22.238281 -28.6875 L 7.417969 -31.023438 L 2.46875 0.390625 L 9.839844 1.550781 L 11.746094 -10.554688 L 17.714844 -9.613281 L 20.378906 3.210938 L 28.160156 4.4375 Z M 20.171875 -22.261719 C 22.558594 -21.886719 23.667969 -20.613281 23.34375 -18.554688 C 23.007812 -16.414062 21.5625 -15.546875 19.171875 -15.921875 L 12.75 -16.933594 L 13.75 -23.273438 Z M 20.171875 -22.261719 "/></g></g></g><g fill="#000000" fill-opacity="1"><g transform="translate(227.143552, 85.581003)"><g><path d="M 13.539062 8 C 22.1875 12.601562 27.945312 9.667969 31.371094 3.230469 L 40.722656 -14.359375 L 34.101562 -17.882812 L 24.746094 -0.292969 C 23.222656 2.578125 20.9375 4.382812 16.671875 2.113281 C 12.363281 -0.175781 12.585938 -3.078125 14.113281 -5.949219 L 23.464844 -23.535156 L 16.84375 -27.058594 L 7.488281 -9.46875 C 4.066406 -3.03125 4.855469 3.382812 13.539062 8 Z M 13.539062 8 "/></g></g></g><g fill="#000000" fill-opacity="1"><g transform="translate(260.996737, 104.964675)"><g><path d="M 11.058594 13.207031 C 16.695312 19.402344 23.398438 19.894531 29.046875 15.886719 L 23.550781 9.84375 C 20.746094 11.71875 18.011719 10.9375 15.878906 8.597656 C 12.484375 4.867188 13.503906 0.164062 17.972656 -3.902344 C 22.414062 -7.941406 27.15625 -8.484375 30.550781 -4.753906 C 32.683594 -2.410156 33.230469 0.417969 31.132812 2.945312 L 36.628906 8.984375 C 41.125 3.769531 41.234375 -2.921875 35.597656 -9.117188 C 28.277344 -17.164062 19.238281 -15.703125 12.671875 -9.726562 C 6.105469 -3.753906 3.738281 5.164062 11.058594 13.207031 Z M 11.058594 13.207031 "/></g></g></g><g fill="#000000" fill-opacity="1"><g transform="translate(286.807818, 135.686181)"><g><path d="M 3.914062 9.160156 L 17.019531 3.558594 L 7.828125 18.316406 L 11.382812 26.632812 L 21.792969 9.3125 L 40.558594 13.984375 L 37.035156 5.742188 L 20.46875 2.082031 L 33.152344 -3.339844 L 30.222656 -10.199219 L 0.984375 2.300781 Z M 3.914062 9.160156 "/></g></g></g><g fill="#000000" fill-opacity="1"><g transform="translate(300.148174, 169.995447)"><g><path d="M 0.566406 15.882812 C 1.1875 23.570312 5.46875 27.949219 11.699219 27.449219 C 19.050781 26.855469 20.011719 20.089844 20.785156 14.632812 C 21.328125 10.953125 21.785156 7.820312 24.070312 7.636719 C 26.0625 7.476562 27.0625 9.488281 27.230469 11.605469 C 27.484375 14.722656 26.035156 17.011719 23.398438 17.976562 L 24.015625 25.660156 C 30.996094 24.097656 34.011719 17.917969 33.476562 11.269531 C 32.957031 4.789062 29.414062 -0.234375 22.851562 0.292969 C 15.871094 0.855469 14.972656 7.324219 14.195312 12.738281 C 13.664062 16.542969 13.214844 19.800781 10.722656 20 C 8.230469 20.199219 7 17.875 6.796875 15.339844 C 6.566406 12.476562 7.414062 9.519531 11.480469 8.105469 L 10.863281 0.421875 C 2.019531 1.71875 0.0859375 9.902344 0.566406 15.882812 Z M 0.566406 15.882812 "/></g></g></g><g clip-path="url(#ea50685ecb)"><g clip-path="url(#4aa8cdb279)"><path fill="#000000" d="M 52.355469 212.898438 L 65.292969 212.898438 L 65.292969 225.839844 L 52.355469 225.839844 Z M 52.355469 212.898438 " fill-opacity="1" fill-rule="nonzero"/></g></g><g clip-path="url(#e4777c748f)"><g clip-path="url(#1cd89e3a5e)"><path fill="#000000" d="M 309.707031 212.898438 L 322.644531 212.898438 L 322.644531 225.839844 L 309.707031 225.839844 Z M 309.707031 212.898438 " fill-opacity="1" fill-rule="nonzero"/></g></g><g clip-path="url(#16bc4b3bc5)"><g clip-path="url(#c8d1d1fed9)"><g clip-path="url(#7800b4c6df)"><g clip-path="url(#328f713e73)"><g clip-path="url(#a01f518208)"><path fill="#000000" d="M 227.125 172.933594 C 226.613281 173.40625 226.09375 173.871094 225.535156 174.28125 C 223.925781 175.460938 222.382812 175.839844 219.988281 175.753906 C 218.597656 175.707031 217.171875 175.6875 215.78125 175.644531 C 215.417969 175.632812 215.046875 175.625 214.695312 175.71875 C 214.101562 175.882812 213.636719 176.328125 213.195312 176.757812 C 212.554688 177.386719 211.914062 178.015625 211.273438 178.640625 C 207.628906 182.210938 180.066406 212.339844 174.449219 217.390625 C 173.589844 218.160156 171.375 220.839844 170.585938 221.679688 C 170.046875 222.25 168.714844 222.445312 167.921875 222.417969 C 167.582031 222.40625 167.253906 222.316406 166.929688 222.210938 C 166.097656 224.339844 164.472656 227.144531 161.519531 230.8125 C 151.691406 243.011719 149.332031 242.691406 148.722656 243.609375 C 148.109375 244.523438 145.226562 248.140625 144.464844 245.699219 C 143.703125 243.253906 141.1875 243.207031 140.675781 242.949219 C 140.164062 242.691406 142.195312 240.902344 144.636719 236.980469 C 147.078125 233.050781 166.5 215.929688 166.5 215.929688 C 168.824219 213.628906 171.238281 211.320312 173.605469 209.160156 C 178.496094 204.683594 178.167969 205.015625 182.050781 201.304688 C 187.042969 196.53125 203.191406 181.039062 209.324219 175.222656 C 211.164062 173.480469 211.375 171.960938 211.324219 170.003906 C 211.273438 168.042969 210.917969 166.007812 211.59375 164.175781 C 212.144531 162.683594 213.316406 161.519531 214.453125 160.414062 C 215.890625 159.019531 217.507812 157.699219 218.894531 156.253906 C 224.792969 150.089844 231.1875 144.402344 237.996094 139.265625 C 238.714844 138.722656 239.535156 138.417969 240.429688 138.558594 C 233.414062 145.855469 226.613281 152.601562 219.6875 159.980469 C 218.746094 160.980469 218.078125 162.257812 217.90625 163.625 C 217.800781 164.496094 217.921875 165.476562 218.570312 166.078125 C 219.070312 166.542969 219.304688 167.253906 219.789062 167.738281 C 220.511719 168.453125 221.5 168.816406 222.453125 169.15625 C 222.773438 169.269531 223.097656 169.386719 223.433594 169.417969 C 224.179688 169.492188 224.894531 169.152344 225.53125 168.769531 C 226.066406 168.449219 226.578125 168.082031 227.054688 167.683594 C 234.546875 161.441406 241.734375 154.148438 248.058594 146.730469 C 248.328125 147.660156 248.175781 148.660156 247.761719 149.523438 C 247.34375 150.386719 246.722656 151.132812 246.101562 151.863281 C 244.292969 153.988281 242.433594 156.074219 240.527344 158.117188 C 237.136719 161.761719 233.46875 166.054688 230.175781 169.789062 C 229.199219 170.894531 228.203125 171.925781 227.125 172.933594 " fill-opacity="1" fill-rule="nonzero"/></g></g></g></g></g><g clip-path="url(#3b1863a496)"><g clip-path="url(#a33c6b4470)"><g clip-path="url(#eddb24d946)"><path fill="#000000" d="M 152.035156 240.570312 C 152.066406 240.4375 152.085938 240.292969 152.152344 240.179688 C 152.171875 240.140625 152.320312 240.183594 152.410156 240.191406 C 152.378906 240.324219 152.351562 240.460938 152.320312 240.589844 C 152.210938 240.582031 152.125 240.574219 152.035156 240.570312 Z M 145.664062 245.890625 C 145.558594 245.808594 145.46875 245.699219 145.371094 245.601562 C 145.273438 245.503906 145.144531 245.421875 145.085938 245.304688 C 145.050781 245.230469 145.097656 245.109375 145.136719 245.027344 C 145.148438 245 145.28125 245.003906 145.320312 245.039062 C 145.523438 245.226562 145.726562 245.414062 145.898438 245.625 C 145.941406 245.675781 145.886719 245.820312 145.847656 245.902344 C 145.835938 245.929688 145.710938 245.925781 145.664062 245.890625 Z M 157.125 233.019531 C 157.179688 233.027344 157.273438 233.117188 157.269531 233.144531 C 157.222656 233.308594 157.148438 233.464844 157.089844 233.617188 C 156.90625 233.835938 156.652344 233.980469 156.480469 233.683594 C 156.3125 233.402344 156.765625 232.960938 157.125 233.019531 Z M 155.386719 234.210938 C 155.3125 234.09375 155.28125 233.945312 155.234375 233.808594 C 155.324219 233.808594 155.417969 233.808594 155.527344 233.8125 C 155.566406 233.945312 155.609375 234.085938 155.652344 234.222656 C 155.558594 234.222656 155.414062 234.253906 155.386719 234.210938 Z M 141.339844 247.234375 C 140.839844 247.109375 140.410156 246.746094 140.171875 246.289062 C 140.042969 246.054688 139.96875 245.785156 139.980469 245.519531 C 140 245.035156 140.304688 244.621094 140.597656 244.238281 C 140.800781 243.972656 141.140625 243.808594 141.472656 243.765625 C 141.957031 243.699219 142.46875 243.816406 142.859375 244.113281 C 143.25 244.414062 143.507812 244.890625 143.511719 245.375 C 143.511719 245.957031 143.167969 246.457031 142.757812 246.867188 C 142.398438 247.226562 141.839844 247.355469 141.339844 247.234375 Z M 164.863281 218.617188 C 164.824219 218.589844 164.855469 218.445312 164.855469 218.355469 C 164.992188 218.398438 165.132812 218.4375 165.265625 218.480469 C 165.265625 218.589844 165.269531 218.679688 165.269531 218.769531 C 165.132812 218.722656 164.984375 218.695312 164.863281 218.617188 Z M 160.507812 221.964844 C 160.503906 221.890625 160.496094 221.828125 160.492188 221.765625 C 160.589844 221.800781 160.691406 221.828125 160.777344 221.882812 C 160.804688 221.902344 160.789062 222 160.792969 222.0625 C 160.699219 222.03125 160.601562 221.996094 160.507812 221.964844 Z M 146.984375 235.273438 C 146.878906 235.296875 146.699219 235.371094 146.675781 235.335938 C 146.550781 235.171875 146.585938 234.996094 146.75 234.921875 C 146.863281 234.867188 146.878906 234.5 147.117188 234.816406 C 147.171875 234.886719 147.125 235.039062 147.101562 235.148438 C 147.089844 235.199219 147.027344 235.230469 146.984375 235.273438 Z M 142.675781 243.097656 C 142.585938 243.117188 142.492188 243.136719 142.398438 243.15625 C 142.394531 243.09375 142.367188 242.992188 142.394531 242.976562 C 142.46875 242.929688 142.570312 242.921875 142.660156 242.894531 C 142.667969 242.957031 142.671875 243.019531 142.675781 243.097656 Z M 152.351562 233.0625 C 152.351562 233.171875 152.355469 233.261719 152.355469 233.351562 C 152.21875 233.304688 152.070312 233.277344 151.949219 233.199219 C 151.90625 233.175781 151.9375 233.027344 151.9375 232.9375 C 152.078125 232.980469 152.214844 233.019531 152.351562 233.0625 Z M 149.007812 237.742188 C 149.039062 238.03125 149.050781 238.3125 149.078125 238.609375 C 148.683594 238.527344 148.460938 238.375 148.488281 238.078125 C 148.515625 237.8125 148.71875 237.691406 149.007812 237.742188 Z M 155.914062 231.492188 C 155.832031 231.78125 155.757812 232.054688 155.671875 232.347656 C 155.601562 232.351562 155.382812 232.199219 155.332031 231.921875 C 155.28125 231.628906 155.46875 231.488281 155.914062 231.492188 Z M 170.988281 216.804688 C 170.988281 216.894531 170.988281 216.988281 170.992188 217.097656 C 170.859375 217.132812 170.71875 217.171875 170.582031 217.210938 C 170.582031 217.117188 170.542969 216.972656 170.585938 216.945312 C 170.703125 216.871094 170.851562 216.847656 170.988281 216.804688 Z M 144.425781 244.132812 C 144.429688 244.195312 144.457031 244.296875 144.429688 244.3125 C 144.355469 244.359375 144.253906 244.371094 144.164062 244.394531 C 144.15625 244.332031 144.152344 244.269531 144.148438 244.195312 C 144.238281 244.175781 144.332031 244.15625 144.425781 244.132812 Z M 159.621094 229.496094 C 159.679688 229.828125 159.558594 230.03125 159.289062 230.054688 C 158.992188 230.078125 158.839844 229.859375 158.785156 229.566406 C 159.035156 229.359375 159.359375 229.605469 159.621094 229.496094 Z M 176.101562 213.054688 C 176.078125 213.144531 176.066406 213.246094 176.023438 213.324219 C 176.003906 213.351562 175.90625 213.320312 175.84375 213.316406 C 175.863281 213.222656 175.882812 213.128906 175.902344 213.042969 C 175.980469 213.046875 176.042969 213.050781 176.101562 213.054688 Z M 168.71875 220.480469 C 168.996094 220.324219 169.453125 220.785156 169.402344 221.144531 C 169.398438 221.199219 169.308594 221.292969 169.285156 221.285156 C 169.121094 221.234375 168.960938 221.15625 168.804688 221.089844 C 168.582031 220.902344 168.429688 220.644531 168.71875 220.480469 Z M 164.03125 226.140625 C 164.070312 226.273438 164.113281 226.414062 164.15625 226.550781 C 164.0625 226.550781 163.917969 226.582031 163.890625 226.542969 C 163.816406 226.421875 163.785156 226.273438 163.738281 226.136719 C 163.828125 226.136719 163.921875 226.136719 164.03125 226.140625 Z M 171.429688 218.078125 C 171.589844 218.152344 171.707031 218.332031 171.84375 218.46875 C 171.976562 218.605469 172.128906 218.730469 172.242188 218.878906 C 172.289062 218.941406 172.285156 219.128906 172.246094 219.148438 C 172.121094 219.210938 171.90625 219.300781 171.835938 219.246094 C 171.539062 219.007812 171.273438 218.722656 171.015625 218.441406 C 170.96875 218.386719 170.972656 218.195312 171.011719 218.175781 C 171.140625 218.109375 171.324219 218.03125 171.429688 218.078125 Z M 158.300781 235.050781 C 163.117188 230.003906 167.847656 224.828125 172.496094 219.625 C 173.976562 217.96875 175.058594 216.304688 176.28125 214.445312 C 176.648438 213.886719 177.011719 213.304688 177.125 212.644531 C 177.234375 211.984375 177.03125 211.21875 176.46875 210.84375 C 175.257812 210.039062 173.597656 210.421875 172.308594 211.042969 C 171.019531 211.667969 169.914062 212.601562 168.832031 213.535156 C 162.878906 218.679688 157.042969 224.230469 151.308594 229.621094 C 146.484375 234.15625 144.976562 235.667969 140.449219 240.503906 C 139.558594 241.453125 138.664062 242.425781 138.070312 243.589844 C 137.476562 244.753906 137.214844 246.152344 137.648438 247.398438 C 137.914062 248.152344 139.261719 249.503906 140.191406 249.710938 C 141.152344 249.921875 142.226562 250.078125 143.121094 249.699219 C 144.019531 249.320312 144.992188 248.378906 145.683594 247.695312 C 150.453125 242.972656 153.148438 240.445312 158.300781 235.050781 " fill-opacity="1" fill-rule="nonzero"/></g></g></g><g clip-path="url(#a247ba5516)"><g clip-path="url(#ec476fee6f)"><g clip-path="url(#3c9d5171c1)"><path fill="#000000" d="M 201.542969 183.226562 C 201.496094 183.304688 201.484375 183.40625 201.460938 183.496094 C 201.523438 183.5 201.585938 183.503906 201.660156 183.511719 C 201.679688 183.421875 201.703125 183.328125 201.722656 183.234375 C 201.660156 183.230469 201.558594 183.199219 201.542969 183.226562 Z M 215.277344 161.417969 C 215.132812 161.367188 214.980469 161.3125 214.832031 161.261719 C 214.835938 161.355469 214.8125 161.507812 214.855469 161.539062 C 214.988281 161.628906 215.148438 161.667969 215.296875 161.726562 C 215.289062 161.628906 215.285156 161.53125 215.277344 161.417969 Z M 218.984375 169.941406 C 218.945312 169.84375 218.921875 169.742188 218.863281 169.65625 C 218.84375 169.628906 218.746094 169.644531 218.683594 169.640625 C 218.71875 169.738281 218.75 169.832031 218.785156 169.925781 C 218.859375 169.933594 218.921875 169.9375 218.984375 169.941406 Z M 189 198.855469 C 188.980469 198.824219 188.882812 198.839844 188.820312 198.835938 C 188.855469 198.933594 188.890625 199.03125 188.921875 199.125 C 188.996094 199.128906 189.058594 199.132812 189.121094 199.136719 C 189.082031 199.042969 189.058594 198.9375 189 198.855469 Z M 176.023438 213.324219 C 176.066406 213.246094 176.078125 213.144531 176.101562 213.054688 C 176.042969 213.050781 175.980469 213.046875 175.902344 213.042969 C 175.882812 213.128906 175.863281 213.222656 175.84375 213.316406 C 175.90625 213.320312 176.003906 213.351562 176.023438 213.324219 Z M 175.4375 209.757812 C 175.429688 209.671875 175.453125 209.53125 175.414062 209.503906 C 175.292969 209.421875 175.148438 209.386719 175.011719 209.332031 C 175.015625 209.421875 175.023438 209.511719 175.03125 209.617188 C 175.164062 209.664062 175.300781 209.710938 175.4375 209.757812 Z M 207.027344 178.941406 C 206.929688 179.128906 207.265625 179.457031 207.507812 179.4375 C 207.542969 179.433594 207.605469 179.378906 207.597656 179.359375 C 207.558594 179.246094 207.5 179.132812 207.449219 179.027344 C 207.3125 178.867188 207.128906 178.753906 207.027344 178.941406 Z M 229.898438 145.871094 C 229.878906 146.113281 230.183594 146.402344 230.402344 146.359375 C 230.429688 146.328125 230.476562 146.300781 230.480469 146.265625 C 230.5 146.019531 230.195312 145.726562 229.980469 145.777344 C 229.945312 145.785156 229.902344 145.832031 229.898438 145.871094 Z M 228.214844 149.84375 C 228.203125 149.457031 228 149.257812 227.613281 149.242188 C 227.625 149.632812 227.828125 149.832031 228.214844 149.84375 Z M 211.40625 175.015625 C 211.402344 174.90625 211.402344 174.816406 211.398438 174.722656 C 211.265625 174.769531 211.113281 174.792969 211 174.867188 C 210.957031 174.894531 210.996094 175.039062 210.996094 175.128906 C 211.132812 175.09375 211.273438 175.054688 211.40625 175.015625 Z M 223 154.378906 C 222.949219 154.242188 222.921875 154.09375 222.847656 153.972656 C 222.816406 153.929688 222.671875 153.964844 222.582031 153.960938 C 222.625 154.101562 222.667969 154.238281 222.707031 154.375 C 222.816406 154.375 222.90625 154.375 223 154.378906 Z M 205.746094 180.796875 C 205.792969 180.933594 205.820312 181.082031 205.898438 181.203125 C 205.925781 181.246094 206.070312 181.210938 206.160156 181.214844 C 206.121094 181.074219 206.078125 180.933594 206.035156 180.800781 C 205.925781 180.800781 205.835938 180.796875 205.746094 180.796875 Z M 201.074219 188.121094 C 201.003906 188.238281 200.976562 188.386719 200.9375 188.523438 C 201.027344 188.523438 201.117188 188.523438 201.226562 188.527344 C 201.261719 188.394531 201.300781 188.257812 201.339844 188.117188 C 201.246094 188.117188 201.101562 188.082031 201.074219 188.121094 Z M 202.664062 184.4375 C 202.691406 184.480469 202.835938 184.445312 202.925781 184.449219 C 202.882812 184.308594 202.84375 184.171875 202.800781 184.035156 C 202.691406 184.035156 202.601562 184.03125 202.511719 184.03125 C 202.558594 184.167969 202.585938 184.320312 202.664062 184.4375 Z M 230.699219 147.925781 C 230.609375 147.925781 230.460938 147.886719 230.4375 147.929688 C 230.363281 148.046875 230.339844 148.195312 230.296875 148.332031 C 230.386719 148.332031 230.476562 148.332031 230.585938 148.335938 C 230.625 148.203125 230.660156 148.0625 230.699219 147.925781 Z M 233.902344 162.339844 C 234.011719 162.339844 234.117188 162.34375 234.242188 162.34375 C 234.285156 162.1875 234.332031 162.027344 234.375 161.867188 C 234.269531 161.867188 234.097656 161.820312 234.066406 161.871094 C 233.980469 162.007812 233.953125 162.179688 233.902344 162.339844 Z M 188.28125 203.101562 C 188.355469 202.984375 188.378906 202.835938 188.421875 202.699219 C 188.332031 202.699219 188.242188 202.695312 188.132812 202.695312 C 188.09375 202.828125 188.058594 202.964844 188.019531 203.105469 C 188.109375 203.105469 188.257812 203.144531 188.28125 203.101562 Z M 187.210938 203.914062 C 187.074219 203.957031 186.925781 203.980469 186.808594 204.054688 C 186.769531 204.078125 186.804688 204.226562 186.804688 204.316406 C 186.945312 204.28125 187.082031 204.242188 187.214844 204.207031 C 187.214844 204.097656 187.210938 204.003906 187.210938 203.914062 Z M 184.367188 200.605469 C 184.316406 200.617188 184.332031 200.875 184.316406 201.019531 C 184.378906 201.082031 184.441406 201.191406 184.503906 201.191406 C 184.5625 201.191406 184.664062 201.09375 184.675781 201.023438 C 184.710938 200.792969 184.757812 200.507812 184.367188 200.605469 Z M 182.125 203.949219 C 182.136719 203.804688 182.171875 203.660156 182.152344 203.519531 C 182.144531 203.453125 182.039062 203.347656 181.976562 203.347656 C 181.914062 203.347656 181.808594 203.449219 181.804688 203.511719 C 181.792969 203.65625 181.824219 203.804688 181.867188 203.941406 C 181.875 203.96875 182.027344 203.949219 182.125 203.949219 Z M 189.898438 199.4375 C 189.789062 199.4375 189.699219 199.4375 189.605469 199.433594 C 189.652344 199.570312 189.683594 199.722656 189.757812 199.839844 C 189.785156 199.882812 189.933594 199.851562 190.023438 199.851562 C 189.980469 199.710938 189.9375 199.574219 189.898438 199.4375 Z M 191.242188 199.050781 C 191.332031 199.050781 191.480469 199.085938 191.503906 199.046875 C 191.578125 198.929688 191.601562 198.78125 191.644531 198.644531 C 191.554688 198.644531 191.464844 198.640625 191.355469 198.640625 C 191.316406 198.773438 191.28125 198.910156 191.242188 199.050781 Z M 179.777344 208.445312 C 179.730469 208.308594 179.703125 208.160156 179.625 208.039062 C 179.597656 208 179.453125 208.03125 179.363281 208.03125 C 179.402344 208.167969 179.445312 208.308594 179.488281 208.441406 C 179.597656 208.445312 179.6875 208.445312 179.777344 208.445312 Z M 179.257812 210.640625 C 179.136719 210.5625 178.988281 210.535156 178.851562 210.488281 C 178.851562 210.578125 178.855469 210.667969 178.855469 210.777344 C 178.988281 210.820312 179.128906 210.859375 179.265625 210.902344 C 179.265625 210.8125 179.296875 210.667969 179.257812 210.640625 Z M 219.53125 159.210938 C 219.582031 159.203125 219.628906 159.132812 219.679688 159.089844 C 219.757812 158.765625 219.355469 158.34375 218.996094 158.394531 C 218.941406 158.402344 218.867188 158.464844 218.855469 158.519531 C 218.765625 158.839844 219.171875 159.257812 219.53125 159.210938 Z M 222.96875 173.066406 C 222.941406 172.496094 223.210938 172.222656 223.78125 172.253906 C 223.808594 172.824219 223.539062 173.09375 222.96875 173.066406 " fill-opacity="1" fill-rule="nonzero"/></g></g></g><g clip-path="url(#face1b9584)"><g clip-path="url(#907250d926)"><g clip-path="url(#b03c8d6e19)"><path fill="#000000" d="M 233.3125 247.675781 C 231.132812 248.542969 229.21875 245.148438 231.707031 243.984375 C 234.371094 242.738281 235.742188 246.707031 233.3125 247.675781 Z M 198.523438 204.34375 C 197.957031 204.914062 197.394531 205.492188 196.835938 206.074219 C 194.441406 206.679688 193.4375 208.285156 193 210.277344 C 192.378906 210.992188 191.765625 211.710938 191.164062 212.4375 C 199.613281 221.117188 208.058594 229.496094 216.507812 238.175781 C 220.304688 242.078125 224.113281 245.992188 228.382812 249.367188 C 229.777344 250.46875 231.425781 251.570312 233.179688 251.3125 C 234.207031 251.164062 235.101562 250.5625 235.929688 249.941406 C 236.800781 249.28125 237.667969 248.53125 238.0625 247.511719 C 238.9375 245.265625 237.21875 242.90625 235.597656 241.113281 C 223.953125 228.21875 211.597656 215.789062 198.523438 204.34375 " fill-opacity="1" fill-rule="nonzero"/></g></g></g><g clip-path="url(#0042cc4a3f)"><g clip-path="url(#adaa83f756)"><g clip-path="url(#69732236a8)"><path fill="#000000" d="M 204.230469 210.609375 C 204.132812 210.585938 204.027344 210.570312 203.949219 210.523438 C 203.921875 210.507812 203.953125 210.402344 203.953125 210.335938 C 204.050781 210.359375 204.148438 210.382812 204.242188 210.40625 C 204.238281 210.480469 204.234375 210.546875 204.230469 210.609375 Z M 200.796875 209.652344 C 200.703125 209.625 200.597656 209.613281 200.515625 209.566406 C 200.488281 209.546875 200.519531 209.441406 200.523438 209.378906 C 200.621094 209.402344 200.71875 209.421875 200.8125 209.445312 C 200.808594 209.523438 200.800781 209.585938 200.796875 209.652344 Z M 196.683594 210.375 C 196.621094 210.414062 196.546875 210.441406 196.472656 210.464844 C 196.527344 210.597656 196.515625 210.730469 196.335938 210.832031 C 196.042969 211.003906 195.582031 210.53125 195.640625 210.15625 C 195.648438 210.101562 195.742188 210 195.765625 210.007812 C 195.9375 210.058594 196.101562 210.136719 196.261719 210.199219 C 196.3125 210.246094 196.359375 210.292969 196.398438 210.339844 C 196.402344 210.324219 196.402344 210.308594 196.402344 210.285156 C 196.5 210.253906 196.597656 210.21875 196.699219 210.1875 C 196.695312 210.25 196.714844 210.351562 196.683594 210.375 Z M 194.199219 210.039062 C 194.160156 210.035156 194.109375 209.992188 194.101562 209.957031 C 194.046875 209.730469 194.351562 209.417969 194.601562 209.441406 C 194.640625 209.445312 194.671875 209.496094 194.703125 209.523438 C 194.75 209.753906 194.453125 210.0625 194.199219 210.039062 Z M 203.214844 208.523438 C 201.707031 208.484375 200.207031 208.382812 198.726562 208.097656 C 198.148438 207.988281 196.984375 207.582031 195.75 207.234375 C 194.757812 208.296875 193.785156 209.371094 192.835938 210.46875 C 193.574219 210.960938 194.496094 211.050781 195.609375 211.109375 C 198.257812 211.257812 200.90625 211.40625 203.554688 211.558594 C 204.609375 211.617188 205.664062 211.675781 206.71875 211.734375 C 205.554688 210.65625 204.390625 209.585938 203.214844 208.523438 Z M 201.011719 218.074219 C 200.898438 218.078125 200.804688 218.078125 200.707031 218.078125 C 200.757812 217.933594 200.785156 217.78125 200.863281 217.65625 C 200.890625 217.613281 201.042969 217.648438 201.136719 217.648438 C 201.09375 217.792969 201.054688 217.9375 201.011719 218.074219 Z M 198.996094 218.230469 C 199.042969 218.289062 199 218.417969 199 218.515625 C 198.613281 218.515625 198.226562 218.535156 197.84375 218.5 C 197.796875 218.496094 197.699219 218.15625 197.757812 218.082031 C 197.792969 218.042969 197.828125 217.996094 197.863281 217.949219 C 197.679688 217.960938 197.605469 217.855469 197.714844 217.738281 C 198.136719 217.285156 198.589844 216.863281 199.050781 216.449219 C 199.09375 216.414062 199.261719 216.523438 199.324219 216.546875 C 198.953125 216.917969 198.582031 217.292969 198.222656 217.648438 C 198.289062 217.636719 198.359375 217.640625 198.441406 217.679688 C 198.664062 217.78125 198.828125 218.027344 198.996094 218.230469 Z M 211.636719 216.371094 C 207.796875 216.222656 203.953125 216.207031 200.113281 216.320312 C 200.054688 216.457031 199.890625 216.609375 199.6875 216.6875 C 199.628906 216.710938 199.554688 216.710938 199.5 216.691406 C 199.320312 216.621094 199.332031 216.53125 199.515625 216.417969 C 199.558594 216.390625 199.601562 216.363281 199.644531 216.332031 C 198.152344 216.378906 196.664062 216.445312 195.179688 216.53125 C 196.316406 217.691406 197.457031 218.855469 198.59375 220.007812 C 200.773438 220.039062 203.003906 219.824219 205.011719 219.832031 C 205.789062 219.835938 211.085938 219.90625 215.335938 219.949219 C 214.109375 218.75 212.875 217.558594 211.636719 216.371094 Z M 215.480469 226.597656 C 215.4375 226.71875 215.378906 226.832031 215.328125 226.945312 C 215.1875 227.109375 215 227.226562 214.890625 227.023438 C 214.785156 226.832031 215.132812 226.492188 215.382812 226.515625 C 215.421875 226.519531 215.484375 226.578125 215.480469 226.597656 Z M 216.023438 225.09375 C 216.023438 225.144531 216.023438 225.195312 216.023438 225.246094 C 215.910156 225.207031 215.789062 225.179688 215.679688 225.132812 C 213.066406 225.414062 210.449219 225.640625 207.832031 225.472656 C 206.488281 225.386719 204.996094 225.109375 203.523438 224.992188 C 203.722656 225.191406 203.921875 225.394531 204.121094 225.597656 C 204.152344 225.496094 204.179688 225.398438 204.234375 225.316406 C 204.261719 225.273438 204.414062 225.308594 204.507812 225.308594 C 204.457031 225.449219 204.429688 225.605469 204.351562 225.726562 C 204.339844 225.746094 204.308594 225.746094 204.273438 225.75 C 204.492188 225.972656 204.714844 226.195312 204.9375 226.417969 C 205 225.828125 205.492188 225.554688 205.953125 225.332031 C 206.089844 225.265625 206.421875 225.5625 206.625 225.738281 C 206.664062 225.773438 206.53125 226.007812 206.476562 226.148438 C 205.902344 225.828125 205.597656 226.589844 205.097656 226.582031 C 205.632812 227.125 206.167969 227.667969 206.707031 228.207031 C 208.320312 228.152344 209.9375 228.097656 211.554688 228.046875 C 212.398438 228.015625 218.589844 227.742188 222.9375 227.59375 C 221.984375 226.613281 221.027344 225.636719 220.0625 224.660156 C 218.71875 224.789062 217.371094 224.945312 216.023438 225.09375 Z M 224.921875 235.859375 C 224.78125 235.8125 224.625 235.785156 224.503906 235.707031 C 224.460938 235.679688 224.5 235.527344 224.5 235.433594 C 224.640625 235.480469 224.792969 235.507812 224.917969 235.585938 C 224.960938 235.613281 224.921875 235.761719 224.921875 235.859375 Z M 221.40625 234.582031 C 221.308594 234.554688 221.203125 234.542969 221.125 234.496094 C 221.097656 234.480469 221.128906 234.375 221.128906 234.308594 C 221.226562 234.332031 221.324219 234.351562 221.417969 234.375 C 221.414062 234.453125 221.410156 234.519531 221.40625 234.582031 Z M 212.996094 233.128906 C 212.996094 233.214844 212.996094 233.289062 212.996094 233.363281 C 212.851562 233.316406 212.695312 233.292969 212.574219 233.214844 C 212.554688 233.203125 212.554688 233.164062 212.554688 233.117188 C 212.207031 233.105469 211.859375 233.09375 211.511719 233.082031 C 212.605469 234.1875 213.695312 235.304688 214.789062 236.421875 C 216.152344 236.371094 217.519531 236.332031 218.882812 236.273438 C 219.664062 236.238281 224.816406 235.847656 228.777344 235.644531 C 228.777344 235.566406 228.777344 235.488281 228.761719 235.410156 C 229.148438 235.410156 229.535156 235.40625 229.917969 235.40625 C 229.90625 235.476562 229.898438 235.535156 229.886719 235.59375 C 230.101562 235.582031 230.3125 235.574219 230.511719 235.566406 C 229.621094 234.609375 228.726562 233.652344 227.828125 232.699219 C 222.898438 233.136719 217.941406 233.28125 212.996094 233.128906 Z M 225.320312 241.402344 C 225.175781 241.359375 225.03125 241.320312 224.894531 241.28125 C 224.894531 241.167969 224.894531 241.070312 224.894531 240.976562 C 225.035156 241.023438 225.191406 241.050781 225.3125 241.128906 C 225.355469 241.15625 225.320312 241.304688 225.320312 241.402344 Z M 225.550781 243.054688 C 225.457031 243.027344 225.351562 243.015625 225.269531 242.964844 C 225.242188 242.949219 225.273438 242.84375 225.277344 242.78125 C 225.375 242.804688 225.476562 242.820312 225.558594 242.867188 C 225.585938 242.882812 225.554688 242.988281 225.550781 243.054688 Z M 221.472656 242.277344 C 221.457031 241.683594 221.742188 241.398438 222.332031 241.417969 C 222.351562 242.007812 222.066406 242.292969 221.472656 242.277344 Z M 230.882812 240.503906 C 230.601562 240.515625 230.320312 240.523438 230.039062 240.53125 C 230.015625 240.609375 229.988281 240.683594 229.960938 240.757812 C 229.886719 240.761719 229.820312 240.765625 229.753906 240.769531 C 229.785156 240.691406 229.8125 240.613281 229.847656 240.539062 C 228 240.597656 226.15625 240.585938 224.308594 240.53125 C 224.125 240.949219 224.144531 241.476562 223.613281 241.699219 C 223.515625 241.800781 223.425781 241.9375 223.308594 241.988281 C 223.207031 242.039062 223.042969 242.039062 222.953125 241.984375 C 222.597656 241.777344 222.695312 240.667969 223.066406 240.632812 C 223.257812 240.617188 223.421875 240.570312 223.574219 240.503906 C 223.222656 240.492188 222.871094 240.476562 222.519531 240.460938 C 222.519531 240.503906 222.503906 240.570312 222.5 240.621094 C 222.40625 240.59375 222.300781 240.582031 222.21875 240.53125 C 222.203125 240.523438 222.207031 240.488281 222.210938 240.445312 C 220.976562 240.386719 219.746094 240.316406 218.511719 240.226562 C 219.746094 241.488281 220.992188 242.738281 222.261719 243.960938 C 222.347656 243.957031 222.429688 243.945312 222.515625 243.9375 C 227.355469 243.570312 232.199219 243.246094 237.042969 242.910156 C 236.605469 242.269531 236.097656 241.664062 235.597656 241.113281 C 235.320312 240.804688 235.042969 240.5 234.765625 240.195312 C 233.476562 240.347656 232.179688 240.445312 230.882812 240.503906 Z M 215.644531 228.824219 C 215.742188 228.84375 215.835938 228.867188 215.929688 228.890625 C 215.925781 228.96875 215.921875 229.03125 215.917969 229.097656 C 215.824219 229.070312 215.71875 229.058594 215.636719 229.007812 C 215.609375 228.992188 215.640625 228.886719 215.644531 228.824219 Z M 210.703125 228.824219 C 210.800781 228.847656 210.898438 228.867188 210.992188 228.890625 C 210.984375 228.96875 210.980469 229.035156 210.980469 229.097656 C 210.882812 229.074219 210.777344 229.058594 210.699219 229.011719 C 210.667969 228.996094 210.699219 228.890625 210.703125 228.824219 Z M 201.195312 207.886719 C 201.226562 207.785156 201.261719 207.683594 201.296875 207.589844 C 201.375 207.585938 201.4375 207.582031 201.503906 207.578125 C 201.464844 207.675781 201.441406 207.78125 201.382812 207.871094 C 201.359375 207.898438 201.261719 207.882812 201.195312 207.886719 Z M 213.496094 228.953125 C 213.535156 228.957031 213.5625 229.007812 213.597656 229.035156 C 213.644531 229.261719 213.34375 229.574219 213.09375 229.550781 C 213.054688 229.546875 213.003906 229.503906 212.992188 229.46875 C 212.941406 229.242188 213.242188 228.929688 213.496094 228.953125 Z M 221.3125 239.242188 C 221.351562 239.246094 221.414062 239.304688 221.410156 239.324219 C 221.367188 239.441406 221.308594 239.554688 221.257812 239.667969 C 221.113281 239.832031 220.929688 239.949219 220.820312 239.75 C 220.714844 239.554688 221.0625 239.21875 221.3125 239.242188 Z M 208.492188 215.300781 C 208.53125 215.304688 208.5625 215.355469 208.59375 215.382812 C 208.640625 215.613281 208.34375 215.921875 208.089844 215.898438 C 208.050781 215.894531 208 215.851562 207.992188 215.816406 C 207.9375 215.589844 208.242188 215.277344 208.492188 215.300781 Z M 206.121094 212.929688 C 206.144531 213.183594 205.808594 213.527344 205.613281 213.421875 C 205.414062 213.316406 205.53125 213.128906 205.695312 212.988281 C 205.808594 212.9375 205.921875 212.875 206.039062 212.835938 C 206.058594 212.828125 206.121094 212.890625 206.121094 212.929688 Z M 235.988281 245.046875 C 235.949219 245.039062 235.90625 244.988281 235.902344 244.949219 C 235.882812 244.695312 236.191406 244.398438 236.417969 244.445312 C 236.449219 244.476562 236.5 244.507812 236.503906 244.546875 C 236.523438 244.800781 236.214844 245.101562 235.988281 245.046875 Z M 220.566406 232.585938 C 220.304688 232.625 220.039062 232.628906 219.71875 232.648438 C 219.828125 232.457031 219.894531 232.261719 220.027344 232.132812 C 220.230469 231.9375 220.527344 232.015625 220.644531 232.292969 C 220.675781 232.363281 220.601562 232.578125 220.566406 232.585938 Z M 235.148438 243.929688 C 235.132812 243.78125 235.171875 243.628906 235.1875 243.480469 C 235.285156 243.480469 235.445312 243.457031 235.453125 243.480469 C 235.496094 243.625 235.523438 243.78125 235.507812 243.925781 C 235.5 243.996094 235.390625 244.105469 235.328125 244.105469 C 235.265625 244.105469 235.15625 243.996094 235.148438 243.929688 Z M 196.433594 215.507812 C 196.367188 215.503906 196.257812 215.390625 196.257812 215.328125 C 196.257812 215.265625 196.367188 215.15625 196.4375 215.148438 C 196.582031 215.132812 196.734375 215.167969 196.886719 215.183594 C 196.886719 215.28125 196.90625 215.441406 196.882812 215.449219 C 196.738281 215.492188 196.582031 215.519531 196.433594 215.507812 Z M 196.054688 215.519531 C 195.902344 215.503906 195.636719 215.515625 195.625 215.460938 C 195.519531 215.054688 195.816406 215.109375 196.054688 215.148438 C 196.125 215.160156 196.230469 215.265625 196.230469 215.328125 C 196.230469 215.394531 196.117188 215.457031 196.054688 215.519531 Z M 200.300781 214.242188 C 200.351562 214.097656 200.378906 213.941406 200.457031 213.820312 C 200.484375 213.777344 200.636719 213.8125 200.730469 213.8125 C 200.683594 213.953125 200.65625 214.109375 200.578125 214.234375 C 200.550781 214.277344 200.398438 214.238281 200.300781 214.242188 Z M 214.695312 229.976562 C 214.84375 229.960938 214.996094 229.996094 215.144531 230.011719 C 215.144531 230.109375 215.164062 230.269531 215.140625 230.277344 C 214.996094 230.320312 214.839844 230.347656 214.695312 230.335938 C 214.625 230.332031 214.515625 230.21875 214.515625 230.15625 C 214.519531 230.09375 214.625 229.984375 214.695312 229.976562 Z M 216.847656 229.351562 C 216.726562 229.429688 216.570312 229.457031 216.425781 229.507812 C 216.425781 229.414062 216.425781 229.316406 216.429688 229.203125 C 216.566406 229.164062 216.710938 229.121094 216.855469 229.078125 C 216.855469 229.171875 216.890625 229.324219 216.847656 229.351562 Z M 222.816406 232.304688 C 222.773438 232.277344 222.8125 232.125 222.8125 232.03125 C 222.953125 232.078125 223.109375 232.105469 223.230469 232.183594 C 223.273438 232.210938 223.234375 232.359375 223.234375 232.457031 C 223.09375 232.410156 222.9375 232.382812 222.816406 232.304688 Z M 207.121094 215.179688 C 207.121094 215.292969 207.121094 215.386719 207.121094 215.484375 C 206.976562 215.4375 206.824219 215.410156 206.703125 215.332031 C 206.660156 215.304688 206.695312 215.152344 206.695312 215.058594 C 206.839844 215.101562 206.984375 215.140625 207.121094 215.179688 Z M 200.933594 215.746094 C 200.996094 215.742188 201.058594 215.855469 201.121094 215.917969 C 201.105469 216.070312 201.113281 216.335938 201.0625 216.351562 C 200.652344 216.457031 200.710938 216.164062 200.75 215.921875 C 200.765625 215.851562 200.871094 215.746094 200.933594 215.746094 Z M 202.742188 213.800781 C 202.628906 213.800781 202.53125 213.800781 202.4375 213.800781 C 202.484375 213.660156 202.515625 213.503906 202.59375 213.382812 C 202.621094 213.339844 202.773438 213.375 202.867188 213.375 C 202.824219 213.515625 202.78125 213.664062 202.742188 213.800781 Z M 208.351562 224.433594 C 208.445312 224.433594 208.539062 224.433594 208.65625 224.433594 C 208.695312 224.570312 208.734375 224.714844 208.773438 224.859375 C 208.679688 224.859375 208.527344 224.894531 208.5 224.851562 C 208.425781 224.730469 208.398438 224.574219 208.351562 224.433594 Z M 209.648438 221.441406 C 209.789062 221.480469 209.933594 221.523438 210.074219 221.5625 C 210.070312 221.675781 210.070312 221.769531 210.070312 221.863281 C 209.929688 221.816406 209.773438 221.792969 209.652344 221.714844 C 209.609375 221.6875 209.648438 221.535156 209.648438 221.441406 Z M 214.496094 230.164062 C 214.5 230.167969 214.378906 230.328125 214.308594 230.347656 C 213.875 230.457031 213.621094 230.214844 213.445312 229.875 C 213.40625 229.800781 213.425781 229.613281 213.445312 229.609375 C 213.597656 229.578125 213.800781 229.507812 213.902344 229.578125 C 214.128906 229.734375 214.308594 229.960938 214.496094 230.164062 Z M 205.375 223.441406 C 205.324219 223.066406 205.753906 222.652344 206.09375 222.738281 C 206.136719 222.792969 206.214844 222.835938 206.222656 222.894531 C 206.273438 223.269531 205.84375 223.6875 205.507812 223.589844 C 205.453125 223.574219 205.382812 223.496094 205.375 223.441406 Z M 235.03125 245.179688 C 234.957031 245.21875 234.769531 245.203125 234.765625 245.1875 C 234.761719 245.160156 234.753906 245.128906 234.746094 245.101562 C 234.738281 245.101562 234.726562 245.105469 234.714844 245.105469 C 234.667969 245.101562 234.597656 245.03125 234.601562 244.988281 C 234.601562 244.949219 234.664062 244.886719 234.714844 244.867188 C 234.710938 244.8125 234.71875 244.761719 234.742188 244.726562 C 234.898438 244.496094 235.125 244.316406 235.335938 244.125 C 235.335938 244.125 235.496094 244.242188 235.515625 244.3125 C 235.621094 244.746094 235.375 245 235.03125 245.179688 Z M 219.371094 230.355469 C 219.199219 230.558594 219.023438 230.910156 218.6875 230.757812 C 218.464844 230.65625 218.300781 230.410156 218.136719 230.207031 C 218.089844 230.152344 218.128906 230.019531 218.132812 229.925781 C 218.515625 229.921875 218.90625 229.90625 219.289062 229.9375 C 219.332031 229.941406 219.433594 230.28125 219.371094 230.355469 Z M 201.167969 215.542969 C 200.941406 215.714844 200.855469 215.804688 200.730469 215.515625 C 200.691406 215.433594 200.683594 215.285156 200.730469 215.226562 C 201.023438 214.855469 201.339844 214.5 202.011719 213.714844 C 202.007812 214.667969 202.003906 215.066406 202 215.484375 C 201.71875 215.496094 201.355469 215.402344 201.167969 215.542969 Z M 231.515625 248.507812 C 231.496094 248.539062 231.394531 248.519531 231.332031 248.523438 C 231.363281 248.421875 231.398438 248.324219 231.429688 248.226562 C 231.507812 248.222656 231.574219 248.21875 231.640625 248.214844 C 231.601562 248.3125 231.574219 248.421875 231.515625 248.507812 Z M 233.3125 247.675781 C 232.609375 247.957031 231.9375 247.792969 231.429688 247.402344 C 231.125 247.453125 230.824219 247.507812 230.519531 247.554688 C 229.683594 247.6875 227.914062 247.667969 226.578125 247.882812 C 227.171875 248.386719 227.769531 248.882812 228.382812 249.367188 C 229.777344 250.46875 231.425781 251.570312 233.179688 251.3125 C 234.207031 251.164062 235.101562 250.5625 235.929688 249.941406 C 236.800781 249.28125 237.667969 248.53125 238.0625 247.511719 C 238.238281 247.070312 238.304688 246.625 238.296875 246.175781 C 236.953125 246.4375 235.605469 246.6875 234.257812 246.921875 C 234.050781 247.238281 233.742188 247.503906 233.3125 247.675781 " fill-opacity="1" fill-rule="nonzero"/></g></g></g><g clip-path="url(#f20ecb8629)"><g clip-path="url(#88fc56b57f)"><g clip-path="url(#16b72aabd9)"><g clip-path="url(#c14ac0d4eb)"><g clip-path="url(#42e24394ed)"><path fill="#000000" d="M 152.761719 146.972656 C 157.945312 152.308594 163.125 157.644531 168.308594 162.984375 C 168.84375 163.535156 169.390625 164.101562 169.6875 164.808594 C 169.984375 165.519531 169.980469 166.40625 169.472656 166.980469 C 168.910156 167.617188 167.898438 167.675781 167.113281 167.347656 C 166.328125 167.019531 165.714844 166.386719 165.128906 165.769531 C 158.175781 158.476562 150.703125 151.503906 144.59375 143.46875 C 144.292969 143.074219 143.988281 142.660156 143.890625 142.175781 C 143.796875 141.6875 143.972656 141.109375 144.425781 140.90625 C 144.863281 140.707031 145.375 140.917969 145.800781 141.144531 C 148.480469 142.578125 150.644531 144.792969 152.761719 146.972656 Z M 163.175781 171.261719 C 163.480469 171.710938 163.761719 172.289062 163.519531 172.773438 C 163.386719 173.042969 163.117188 173.214844 162.839844 173.320312 C 161.257812 173.925781 159.621094 172.660156 158.402344 171.484375 C 153.648438 166.90625 148.960938 162.257812 144.34375 157.539062 C 142.277344 155.429688 140.0625 153.390625 138.082031 151.210938 C 137.042969 150.074219 136.511719 146.21875 139.042969 147.675781 C 140.523438 148.523438 141.753906 149.734375 142.96875 150.933594 C 148.789062 156.679688 154.605469 162.429688 160.425781 168.175781 C 161.410156 169.144531 162.394531 170.121094 163.175781 171.261719 Z M 157.835938 176.132812 C 158.246094 176.996094 158.3125 178.082031 157.753906 178.851562 C 157.101562 179.753906 155.777344 179.945312 154.714844 179.589844 C 153.65625 179.238281 152.796875 178.460938 151.980469 177.699219 C 148.050781 174.039062 143.824219 170.222656 140.273438 166.214844 C 136.761719 162.257812 134.738281 160.777344 131.117188 156.664062 C 130.269531 155.699219 129.699219 154.089844 130.585938 153.164062 C 131.429688 152.277344 132.921875 152.792969 133.960938 153.453125 C 136.128906 154.835938 138.007812 156.621094 139.867188 158.398438 C 145.273438 163.5625 150.664062 168.738281 156.039062 173.929688 C 156.726562 174.59375 157.425781 175.273438 157.835938 176.132812 Z M 150.714844 183.121094 C 151.339844 184.292969 150.160156 185.648438 148.929688 185.152344 C 148.921875 185.152344 148.914062 185.148438 148.90625 185.144531 C 148.070312 184.800781 147.40625 184.144531 146.765625 183.507812 C 140.410156 177.152344 134.027344 170.832031 127.71875 164.433594 C 126.429688 163.128906 125.058594 161.65625 125.019531 159.792969 C 125.015625 159.527344 125.09375 159.257812 125.289062 159.082031 C 125.6875 158.722656 126.167969 158.976562 126.546875 159.226562 C 130.003906 161.527344 132.972656 164.472656 135.917969 167.402344 C 139.339844 170.800781 142.757812 174.199219 146.175781 177.601562 C 147.871094 179.28125 149.609375 181.039062 150.714844 183.121094 Z M 145.984375 131.554688 C 144.601562 131.273438 143.332031 132.304688 142.300781 133.265625 C 135.210938 139.863281 128.125 146.464844 121.035156 153.0625 C 118.945312 155.007812 115.964844 158.4375 117.257812 161.808594 C 118.210938 164.300781 121 167.214844 122.953125 168.9375 C 131.117188 176.128906 139.257812 183.34375 147.410156 190.546875 C 148.785156 191.761719 150.414062 193.058594 152.226562 192.808594 C 153.40625 192.644531 154.382812 191.84375 155.289062 191.070312 C 158.414062 188.390625 161.460938 185.617188 164.425781 182.757812 C 165.378906 183.792969 166.445312 184.695312 166.964844 185.195312 C 170.144531 188.257812 173.324219 191.320312 176.503906 194.382812 C 182 199.679688 187.5 204.980469 193 210.277344 C 194.246094 208.847656 195.527344 207.445312 196.839844 206.074219 C 187.351562 197.019531 177.863281 187.960938 168.375 178.902344 C 168.367188 178.894531 168.355469 178.886719 168.347656 178.878906 C 171.171875 176.015625 173.917969 173.070312 176.574219 170.050781 C 177.441406 169.058594 178.355469 167.925781 178.324219 166.605469 C 178.296875 165.320312 177.390625 164.25 176.527344 163.296875 C 167.265625 153.03125 157.808594 142.945312 148.160156 133.039062 C 147.539062 132.402344 146.859375 131.730469 145.984375 131.554688 " fill-opacity="1" fill-rule="nonzero"/></g></g></g></g></g><g clip-path="url(#cf9ac32d4d)"><g clip-path="url(#86e9a9265d)"><g clip-path="url(#82918072fa)"><path fill="#000000" d="M 152.1875 169.390625 C 152.144531 169.394531 152.066406 169.472656 152.058594 169.519531 C 152.019531 169.6875 151.96875 169.890625 152.253906 169.800781 C 152.292969 169.789062 152.292969 169.609375 152.3125 169.503906 C 152.269531 169.464844 152.234375 169.390625 152.1875 169.390625 Z M 160.328125 148.703125 C 160.296875 148.800781 160.261719 148.902344 160.226562 149 C 160.292969 148.996094 160.394531 149.015625 160.414062 148.984375 C 160.472656 148.898438 160.496094 148.792969 160.535156 148.691406 C 160.46875 148.695312 160.40625 148.699219 160.328125 148.703125 Z M 149.921875 156.109375 C 149.839844 156.0625 149.734375 156.046875 149.640625 156.023438 C 149.636719 156.085938 149.605469 156.191406 149.632812 156.210938 C 149.714844 156.257812 149.820312 156.269531 149.914062 156.296875 C 149.917969 156.230469 149.949219 156.125 149.921875 156.109375 Z M 134.703125 172.785156 C 134.785156 172.832031 134.886719 172.847656 134.984375 172.875 C 134.988281 172.808594 135.019531 172.703125 134.992188 172.6875 C 134.910156 172.636719 134.804688 172.625 134.710938 172.597656 C 134.707031 172.664062 134.675781 172.769531 134.703125 172.785156 Z M 152.019531 155.09375 C 151.925781 155.070312 151.828125 155.046875 151.734375 155.027344 C 151.730469 155.089844 151.699219 155.195312 151.726562 155.214844 C 151.808594 155.261719 151.910156 155.273438 152.007812 155.300781 C 152.011719 155.234375 152.015625 155.171875 152.019531 155.09375 Z M 160.222656 153.941406 C 160.289062 153.9375 160.390625 153.957031 160.410156 153.925781 C 160.46875 153.839844 160.496094 153.730469 160.53125 153.632812 C 160.46875 153.636719 160.363281 153.617188 160.34375 153.648438 C 160.289062 153.734375 160.261719 153.84375 160.222656 153.941406 Z M 156.894531 158.644531 C 156.847656 158.6875 156.773438 158.730469 156.761719 158.78125 C 156.722656 158.945312 156.675781 159.152344 156.957031 159.0625 C 156.996094 159.050781 157 158.867188 157.015625 158.765625 C 156.976562 158.726562 156.933594 158.683594 156.894531 158.644531 Z M 157.027344 158.503906 C 157.039062 158.402344 157.027344 158.300781 157.003906 158.203125 C 157 158.1875 156.890625 158.207031 156.820312 158.210938 C 156.804688 158.3125 156.773438 158.417969 156.777344 158.519531 C 156.78125 158.566406 156.851562 158.636719 156.894531 158.632812 C 156.9375 158.632812 157.019531 158.550781 157.027344 158.503906 Z M 134.003906 176.414062 C 134.023438 176.441406 134.128906 176.410156 134.191406 176.40625 C 134.171875 176.308594 134.148438 176.214844 134.125 176.121094 C 134.046875 176.125 133.984375 176.128906 133.917969 176.132812 C 133.945312 176.226562 133.957031 176.332031 134.003906 176.414062 Z M 151.621094 159.535156 C 151.617188 159.582031 151.6875 159.652344 151.734375 159.652344 C 151.832031 159.65625 151.941406 159.628906 152.042969 159.597656 C 152.058594 159.589844 152.050781 159.480469 152.054688 159.414062 C 151.953125 159.40625 151.851562 159.390625 151.75 159.40625 C 151.699219 159.414062 151.621094 159.492188 151.621094 159.535156 Z M 159.148438 172.105469 C 159.054688 172.082031 158.957031 172.0625 158.859375 172.039062 C 158.855469 172.101562 158.824219 172.207031 158.855469 172.226562 C 158.933594 172.273438 159.039062 172.285156 159.132812 172.3125 C 159.136719 172.246094 159.144531 172.183594 159.148438 172.105469 Z M 158.109375 179.742188 C 158.027344 179.695312 157.921875 179.679688 157.828125 179.652344 C 157.824219 179.71875 157.792969 179.824219 157.820312 179.839844 C 157.902344 179.890625 158.007812 179.902344 158.101562 179.929688 C 158.105469 179.863281 158.136719 179.757812 158.109375 179.742188 Z M 176.238281 163.164062 C 176.175781 163.167969 176.074219 163.148438 176.054688 163.175781 C 175.996094 163.265625 175.96875 163.371094 175.929688 163.472656 C 175.996094 163.46875 176.0625 163.464844 176.140625 163.457031 C 176.171875 163.363281 176.207031 163.261719 176.238281 163.164062 Z M 120.496094 159.199219 C 120.515625 159.226562 120.621094 159.195312 120.683594 159.191406 C 120.660156 159.09375 120.640625 159 120.617188 158.90625 C 120.539062 158.910156 120.476562 158.914062 120.410156 158.917969 C 120.4375 159.011719 120.449219 159.117188 120.496094 159.199219 Z M 141.253906 140.621094 C 141.160156 140.597656 141.0625 140.578125 140.96875 140.554688 C 140.964844 140.621094 140.933594 140.726562 140.960938 140.742188 C 141.042969 140.789062 141.148438 140.800781 141.242188 140.828125 C 141.246094 140.761719 141.25 140.699219 141.253906 140.621094 Z M 153.109375 144.769531 C 153.167969 144.683594 153.191406 144.574219 153.230469 144.476562 C 153.164062 144.480469 153.101562 144.484375 153.023438 144.488281 C 152.988281 144.585938 152.953125 144.6875 152.921875 144.785156 C 152.984375 144.78125 153.085938 144.800781 153.109375 144.769531 Z M 152.644531 145.964844 C 152.613281 146.058594 152.578125 146.160156 152.542969 146.261719 C 152.609375 146.257812 152.710938 146.277344 152.730469 146.246094 C 152.789062 146.15625 152.8125 146.050781 152.851562 145.953125 C 152.785156 145.957031 152.722656 145.957031 152.644531 145.964844 Z M 128.125 166.015625 C 128.121094 166.078125 128.089844 166.183594 128.117188 166.203125 C 128.199219 166.25 128.304688 166.261719 128.398438 166.289062 C 128.402344 166.226562 128.433594 166.121094 128.40625 166.101562 C 128.324219 166.054688 128.222656 166.042969 128.125 166.015625 Z M 130.058594 172.582031 C 129.960938 172.621094 129.855469 172.648438 129.769531 172.707031 C 129.738281 172.726562 129.753906 172.828125 129.75 172.890625 C 129.851562 172.859375 129.953125 172.824219 130.046875 172.789062 C 130.054688 172.714844 130.058594 172.648438 130.058594 172.582031 Z M 131.257812 152.378906 C 131.261719 152.300781 131.265625 152.234375 131.269531 152.171875 C 131.171875 152.210938 131.066406 152.234375 130.976562 152.292969 C 130.949219 152.3125 130.964844 152.414062 130.960938 152.480469 C 131.0625 152.445312 131.164062 152.410156 131.257812 152.378906 Z M 129.65625 154.882812 C 129.757812 154.847656 129.859375 154.8125 129.953125 154.78125 C 129.957031 154.703125 129.960938 154.636719 129.964844 154.574219 C 129.867188 154.609375 129.761719 154.636719 129.671875 154.695312 C 129.644531 154.714844 129.660156 154.816406 129.65625 154.882812 Z M 182.84375 193.945312 C 182.75 193.925781 182.652344 193.902344 182.554688 193.878906 C 182.550781 193.945312 182.519531 194.050781 182.550781 194.066406 C 182.628906 194.117188 182.734375 194.128906 182.832031 194.15625 C 182.832031 194.089844 182.835938 194.023438 182.84375 193.945312 Z M 181.429688 193.179688 C 181.347656 193.132812 181.246094 193.117188 181.148438 193.089844 C 181.144531 193.15625 181.113281 193.261719 181.144531 193.277344 C 181.222656 193.328125 181.328125 193.339844 181.425781 193.367188 C 181.425781 193.300781 181.457031 193.195312 181.429688 193.179688 Z M 126.484375 169.125 C 126.480469 169.085938 126.421875 169.019531 126.402344 169.027344 C 126.285156 169.070312 126.167969 169.128906 126.058594 169.183594 C 125.890625 169.324219 125.777344 169.507812 125.976562 169.617188 C 126.167969 169.722656 126.507812 169.375 126.484375 169.125 Z M 154.675781 147.144531 C 154.730469 147.03125 154.789062 146.914062 154.828125 146.796875 C 154.835938 146.777344 154.773438 146.71875 154.734375 146.714844 C 154.480469 146.691406 154.136719 147.03125 154.242188 147.222656 C 154.351562 147.425781 154.535156 147.308594 154.675781 147.144531 Z M 134.222656 146.476562 C 133.820312 146.484375 133.613281 146.691406 133.605469 147.09375 C 134.007812 147.082031 134.214844 146.878906 134.222656 146.476562 Z M 119.480469 158.199219 C 119.433594 158.25 119.359375 158.289062 119.34375 158.347656 C 119.304688 158.460938 119.234375 158.628906 119.28125 158.695312 C 119.328125 158.761719 119.363281 158.789062 119.398438 158.800781 C 119.015625 159.234375 118.609375 159.421875 118.640625 159.902344 C 119.128906 159.777344 119.449219 159.515625 119.554688 158.699219 C 119.59375 158.636719 119.632812 158.5625 119.683594 158.535156 C 119.863281 158.433594 119.925781 158.246094 119.816406 158.089844 C 119.792969 158.058594 119.597656 158.160156 119.480469 158.199219 Z M 178 192.222656 C 177.996094 192.183594 177.949219 192.15625 177.917969 192.121094 C 177.691406 192.074219 177.382812 192.375 177.402344 192.625 C 177.40625 192.664062 177.449219 192.714844 177.488281 192.722656 C 177.714844 192.777344 178.023438 192.476562 178 192.222656 Z M 125.765625 166.535156 C 125.769531 166.515625 125.707031 166.457031 125.667969 166.453125 C 125.414062 166.433594 125.070312 166.769531 125.175781 166.960938 C 125.28125 167.164062 125.46875 167.046875 125.609375 166.882812 C 125.664062 166.769531 125.722656 166.65625 125.765625 166.535156 Z M 144.378906 146.746094 C 143.976562 146.753906 143.769531 146.960938 143.757812 147.363281 C 144.164062 147.355469 144.371094 147.148438 144.378906 146.746094 Z M 156.6875 159.671875 C 156.285156 159.679688 156.078125 159.886719 156.070312 160.289062 C 156.472656 160.28125 156.679688 160.074219 156.6875 159.671875 Z M 157.886719 163.960938 C 158.289062 163.949219 158.496094 163.746094 158.503906 163.339844 C 158.101562 163.351562 157.894531 163.554688 157.886719 163.960938 Z M 147.394531 174.367188 C 147.402344 174.40625 147.453125 174.449219 147.492188 174.453125 C 147.746094 174.472656 148.042969 174.164062 147.996094 173.9375 C 147.960938 173.910156 147.933594 173.859375 147.894531 173.855469 C 147.640625 173.832031 147.339844 174.140625 147.394531 174.367188 Z M 152.472656 169.085938 C 152.652344 168.984375 152.714844 168.796875 152.605469 168.640625 C 152.585938 168.609375 152.386719 168.710938 152.273438 168.75 C 152.222656 168.800781 152.152344 168.839844 152.132812 168.894531 C 152.09375 169.011719 152.023438 169.179688 152.070312 169.246094 C 152.28125 169.546875 152.347656 169.160156 152.472656 169.085938 Z M 133.863281 172.160156 C 133.828125 172.128906 133.800781 172.082031 133.761719 172.078125 C 133.507812 172.054688 133.207031 172.367188 133.261719 172.589844 C 133.269531 172.628906 133.320312 172.671875 133.359375 172.675781 C 133.609375 172.699219 133.910156 172.386719 133.863281 172.160156 Z M 175.023438 164.296875 C 175.046875 164.574219 175.257812 164.703125 175.558594 164.65625 C 175.570312 164.527344 175.589844 164.398438 175.589844 164.269531 C 175.59375 164.105469 175.582031 163.941406 175.574219 163.769531 C 175.21875 163.832031 174.996094 163.988281 175.023438 164.296875 Z M 120.617188 155.222656 C 120.589844 154.945312 120.375 154.820312 120.054688 154.875 C 120.050781 155 120.042969 155.128906 120.046875 155.261719 C 120.050781 155.421875 120.058594 155.585938 120.066406 155.757812 C 120.421875 155.6875 120.652344 155.53125 120.617188 155.222656 Z M 136.242188 144.175781 C 136.46875 144.367188 136.691406 144.34375 136.902344 144.070312 C 137.015625 143.878906 137.058594 143.710938 136.875 143.558594 C 136.648438 143.367188 136.417969 143.386719 136.214844 143.664062 C 136.085938 143.847656 136.054688 144.019531 136.242188 144.175781 Z M 153.878906 159.902344 C 153.355469 159.859375 153.003906 160.355469 152.585938 160.207031 C 152.84375 160.925781 152.933594 160.953125 153.4375 160.449219 C 153.574219 160.3125 153.683594 160.144531 153.878906 159.902344 Z M 154.484375 157.589844 C 154.863281 157.394531 155.171875 157.042969 155.570312 157.109375 C 155.585938 157.113281 155.710938 156.859375 155.683594 156.835938 C 155.550781 156.726562 155.335938 156.535156 155.242188 156.582031 C 154.894531 156.765625 154.515625 156.984375 154.484375 157.589844 Z M 132.078125 162.535156 C 132.289062 162 132.40625 161.699219 132.554688 161.320312 C 132.003906 161.457031 131.84375 161.808594 131.894531 161.773438 C 131.683594 162.304688 131.566406 162.609375 131.417969 162.988281 C 131.96875 162.847656 132.128906 162.496094 132.078125 162.535156 Z M 127.65625 151.03125 C 127.972656 151.34375 128.554688 151.085938 128.835938 151.550781 C 129.007812 151.835938 129.289062 151.753906 129.480469 151.488281 C 129.613281 151.300781 129.664062 151.109375 129.386719 150.929688 C 129.261719 150.53125 128.8125 150.648438 128.445312 150.542969 C 128.035156 150.425781 127.9375 149.820312 127.398438 149.777344 C 127.089844 149.75 126.804688 149.605469 126.5 149.5625 C 126.429688 149.554688 126.292969 149.699219 126.222656 149.816406 C 126.195312 149.816406 126.171875 149.816406 126.136719 149.816406 C 126.097656 149.953125 126.054688 150.097656 126.011719 150.242188 C 126.105469 150.242188 126.257812 150.277344 126.285156 150.234375 C 126.304688 150.203125 126.316406 150.167969 126.328125 150.132812 C 126.445312 150.136719 126.601562 150.074219 126.667969 150.128906 C 127.015625 150.410156 127.339844 150.71875 127.65625 151.03125 Z M 160.898438 166.382812 C 160.761719 166.34375 160.617188 166.300781 160.472656 166.261719 C 160.472656 166.355469 160.4375 166.507812 160.476562 166.535156 C 160.601562 166.613281 160.753906 166.640625 160.894531 166.6875 C 160.898438 166.589844 160.898438 166.496094 160.898438 166.382812 Z M 157.886719 165.445312 C 157.898438 165.296875 157.871094 165.140625 157.828125 165 C 157.824219 164.976562 157.664062 165 157.5625 164.996094 C 157.546875 165.148438 157.507812 165.300781 157.523438 165.445312 C 157.53125 165.515625 157.640625 165.621094 157.703125 165.625 C 157.765625 165.621094 157.878906 165.515625 157.886719 165.445312 Z M 158.769531 165.914062 C 158.617188 165.898438 158.46875 165.863281 158.320312 165.878906 C 158.25 165.886719 158.140625 165.996094 158.140625 166.0625 C 158.140625 166.125 158.25 166.234375 158.316406 166.242188 C 158.464844 166.253906 158.621094 166.222656 158.761719 166.179688 C 158.789062 166.171875 158.769531 166.011719 158.769531 165.914062 Z M 140.480469 156.5625 C 140.523438 156.703125 140.550781 156.859375 140.628906 156.980469 C 140.65625 157.023438 140.808594 156.988281 140.902344 156.984375 C 140.863281 156.839844 140.820312 156.699219 140.78125 156.558594 C 140.667969 156.558594 140.574219 156.5625 140.480469 156.5625 Z M 139.644531 153.152344 C 139.691406 153.296875 139.71875 153.449219 139.796875 153.574219 C 139.824219 153.617188 139.972656 153.578125 140.070312 153.578125 C 140.027344 153.433594 139.988281 153.292969 139.949219 153.152344 C 139.835938 153.152344 139.738281 153.152344 139.644531 153.152344 Z M 152.855469 155.214844 C 152.816406 155.070312 152.773438 154.925781 152.734375 154.789062 C 152.621094 154.789062 152.527344 154.789062 152.433594 154.789062 C 152.476562 154.929688 152.503906 155.085938 152.582031 155.207031 C 152.609375 155.25 152.761719 155.214844 152.855469 155.214844 Z M 140.414062 167.378906 C 140.292969 167.300781 140.136719 167.273438 139.992188 167.226562 C 139.992188 167.320312 139.992188 167.417969 139.992188 167.53125 C 140.132812 167.570312 140.273438 167.609375 140.417969 167.652344 C 140.417969 167.558594 140.453125 167.40625 140.414062 167.378906 Z M 150.710938 158.484375 C 150.835938 158.5625 150.988281 158.589844 151.128906 158.636719 C 151.132812 158.542969 151.132812 158.445312 151.132812 158.332031 C 150.996094 158.292969 150.851562 158.25 150.707031 158.210938 C 150.707031 158.304688 150.667969 158.457031 150.710938 158.484375 Z M 142.605469 157.828125 C 142.5625 157.683594 142.523438 157.542969 142.484375 157.402344 C 142.371094 157.402344 142.273438 157.40625 142.179688 157.40625 C 142.226562 157.546875 142.253906 157.703125 142.332031 157.824219 C 142.359375 157.867188 142.511719 157.828125 142.605469 157.828125 Z M 176.53125 192.34375 C 176.410156 192.269531 176.253906 192.242188 176.113281 192.195312 C 176.113281 192.289062 176.109375 192.382812 176.109375 192.5 C 176.25 192.539062 176.390625 192.578125 176.535156 192.617188 C 176.535156 192.523438 176.574219 192.371094 176.53125 192.34375 Z M 175.707031 188.359375 C 175.707031 188.261719 175.742188 188.109375 175.699219 188.082031 C 175.578125 188.007812 175.425781 187.980469 175.28125 187.933594 C 175.28125 188.027344 175.28125 188.121094 175.28125 188.238281 C 175.417969 188.277344 175.5625 188.316406 175.707031 188.359375 Z M 158.214844 187.753906 C 158.09375 187.675781 157.9375 187.648438 157.796875 187.601562 C 157.796875 187.699219 157.792969 187.792969 157.796875 187.90625 C 157.933594 187.945312 158.078125 187.988281 158.222656 188.027344 C 158.222656 187.933594 158.257812 187.78125 158.214844 187.753906 Z M 153.507812 191.589844 C 153.371094 191.550781 153.226562 191.507812 153.082031 191.46875 C 153.082031 191.5625 153.046875 191.714844 153.089844 191.742188 C 153.210938 191.820312 153.367188 191.84375 153.507812 191.890625 C 153.507812 191.796875 153.507812 191.703125 153.507812 191.589844 Z M 144.878906 132.226562 C 144.972656 132.226562 145.125 132.261719 145.152344 132.21875 C 145.230469 132.09375 145.257812 131.9375 145.308594 131.796875 C 145.210938 131.796875 145.117188 131.796875 145.003906 131.796875 C 144.964844 131.9375 144.921875 132.082031 144.878906 132.226562 Z M 134.542969 148.644531 C 134.421875 148.566406 134.269531 148.539062 134.125 148.492188 C 134.125 148.585938 134.125 148.683594 134.125 148.796875 C 134.261719 148.835938 134.40625 148.875 134.550781 148.917969 C 134.550781 148.820312 134.585938 148.671875 134.542969 148.644531 Z M 127.6875 155.777344 C 127.6875 155.683594 127.726562 155.53125 127.683594 155.503906 C 127.558594 155.425781 127.40625 155.402344 127.265625 155.355469 C 127.261719 155.449219 127.261719 155.542969 127.261719 155.65625 C 127.398438 155.695312 127.542969 155.738281 127.6875 155.777344 Z M 135.6875 152.324219 C 135.574219 152.324219 135.480469 152.324219 135.382812 152.324219 C 135.429688 152.464844 135.457031 152.621094 135.535156 152.742188 C 135.5625 152.785156 135.714844 152.75 135.808594 152.746094 C 135.769531 152.605469 135.726562 152.460938 135.6875 152.324219 Z M 129.273438 150.230469 C 129.246094 150.1875 129.09375 150.226562 129 150.226562 C 129.039062 150.371094 129.078125 150.515625 129.117188 150.652344 C 129.234375 150.652344 129.328125 150.652344 129.421875 150.652344 C 129.375 150.507812 129.347656 150.355469 129.273438 150.230469 Z M 131.125 151.191406 C 130.984375 151.152344 130.84375 151.109375 130.699219 151.070312 C 130.699219 151.164062 130.664062 151.316406 130.703125 151.34375 C 130.824219 151.421875 130.980469 151.449219 131.125 151.496094 C 131.125 151.398438 131.125 151.304688 131.125 151.191406 Z M 190.957031 207.042969 C 190.917969 206.898438 190.878906 206.753906 190.839844 206.617188 C 190.722656 206.617188 190.628906 206.617188 190.535156 206.617188 C 190.582031 206.757812 190.609375 206.914062 190.683594 207.035156 C 190.710938 207.078125 190.863281 207.042969 190.957031 207.042969 Z M 181.609375 199.261719 C 181.65625 199.234375 181.617188 199.082031 181.621094 198.988281 C 181.476562 199.03125 181.332031 199.074219 181.191406 199.113281 C 181.191406 199.226562 181.191406 199.324219 181.191406 199.417969 C 181.332031 199.367188 181.488281 199.339844 181.609375 199.261719 Z M 144.027344 132.230469 C 143.433594 132.210938 143.148438 132.496094 143.164062 133.089844 C 143.757812 133.105469 144.042969 132.820312 144.027344 132.230469 Z M 165.125 173.351562 C 165.214844 173.011719 164.804688 172.585938 164.433594 172.644531 C 164.375 172.652344 164.296875 172.71875 164.28125 172.773438 C 164.179688 173.113281 164.59375 173.539062 164.96875 173.484375 C 165.027344 173.472656 165.074219 173.398438 165.125 173.351562 Z M 126.34375 166.878906 C 126.9375 166.894531 127.222656 166.609375 127.207031 166.015625 C 126.613281 166 126.328125 166.285156 126.34375 166.878906 Z M 147.988281 136.027344 C 148.28125 136.195312 148.746094 135.71875 148.695312 135.347656 C 148.6875 135.289062 148.59375 135.191406 148.566406 135.199219 C 148.394531 135.25 148.234375 135.328125 148.070312 135.394531 C 147.839844 135.589844 147.683594 135.855469 147.988281 136.027344 Z M 143.925781 151.707031 C 144.054688 151.773438 144.246094 151.863281 144.355469 151.8125 C 144.523438 151.734375 144.644531 151.546875 144.785156 151.410156 C 144.921875 151.269531 145.078125 151.140625 145.195312 150.984375 C 145.242188 150.921875 145.234375 150.730469 145.199219 150.707031 C 145.066406 150.640625 144.839844 150.542969 144.765625 150.601562 C 144.460938 150.847656 144.191406 151.136719 143.925781 151.429688 C 143.878906 151.484375 143.882812 151.683594 143.925781 151.707031 Z M 162.078125 182.046875 C 162.042969 182.007812 161.695312 182.117188 161.683594 182.191406 C 161.613281 182.558594 161.609375 182.941406 161.582031 183.316406 C 162.070312 183.3125 162.453125 183.3125 162.980469 183.308594 C 162.875 182.585938 162.371094 182.398438 162.078125 182.046875 Z M 162.953125 180.234375 C 162.953125 180.734375 162.949219 181.167969 162.949219 181.671875 C 162.632812 181.53125 162.375 181.503906 162.320312 181.378906 C 162.132812 180.972656 162.050781 180.515625 161.867188 180.109375 C 161.71875 179.777344 161.1875 179.683594 161.261719 179.195312 C 161.269531 179.140625 161.351562 179.097656 161.402344 179.050781 C 162.152344 179.179688 162.347656 179.972656 162.953125 180.234375 " fill-opacity="1" fill-rule="nonzero"/></g></g></g></svg>