<svg xmlns="http://www.w3.org/2000/svg" xmlns:xlink="http://www.w3.org/1999/xlink" width="500" zoomAndPan="magnify" viewBox="0 0 375 374.999991" height="500" preserveAspectRatio="xMidYMid meet" version="1.0"><defs><clipPath id="88a151bfe4"><path d="M 69 48 L 332 48 L 332 311 L 69 311 Z M 69 48 " clip-rule="nonzero"/></clipPath><clipPath id="41b3b3b2fc"><path d="M 307.570312 42.960938 L 338.328125 73.722656 L 80.058594 331.992188 L 49.296875 301.234375 Z M 307.570312 42.960938 " clip-rule="nonzero"/></clipPath><clipPath id="5e2a55a4d5"><path d="M 307.570312 42.960938 L 338.328125 73.722656 L 80.058594 331.992188 L 49.296875 301.234375 Z M 307.570312 42.960938 " clip-rule="nonzero"/></clipPath><clipPath id="754e1a2c35"><path d="M 307.710938 43.101562 L 338.398438 73.789062 L 89.621094 322.5625 L 58.933594 291.875 Z M 307.710938 43.101562 " clip-rule="nonzero"/></clipPath><clipPath id="4517b8a489"><path d="M 307.710938 43.101562 L 338.191406 73.582031 L 89.414062 322.355469 L 58.933594 291.875 Z M 307.710938 43.101562 " clip-rule="nonzero"/></clipPath><clipPath id="e9cd026fe3"><path d="M 61 222 L 159 222 L 159 320 L 61 320 Z M 61 222 " clip-rule="nonzero"/></clipPath><clipPath id="21700ce38e"><path d="M 307.570312 42.960938 L 338.328125 73.722656 L 80.058594 331.992188 L 49.296875 301.234375 Z M 307.570312 42.960938 " clip-rule="nonzero"/></clipPath><clipPath id="c95a12f759"><path d="M 307.570312 42.960938 L 338.328125 73.722656 L 80.058594 331.992188 L 49.296875 301.234375 Z M 307.570312 42.960938 " clip-rule="nonzero"/></clipPath><clipPath id="9ad0a8aa13"><path d="M 153 65 L 298 65 L 298 231 L 153 231 Z M 153 65 " clip-rule="nonzero"/></clipPath><clipPath id="87e7664343"><path d="M 307.570312 42.960938 L 338.328125 73.722656 L 80.058594 331.992188 L 49.296875 301.234375 Z M 307.570312 42.960938 " clip-rule="nonzero"/></clipPath><clipPath id="4cb1eb565e"><path d="M 307.570312 42.960938 L 338.328125 73.722656 L 80.058594 331.992188 L 49.296875 301.234375 Z M 307.570312 42.960938 " clip-rule="nonzero"/></clipPath><clipPath id="f2a4300cff"><path d="M 207 202 L 314 202 L 314 309 L 207 309 Z M 207 202 " clip-rule="nonzero"/></clipPath><clipPath id="79be62af1b"><path d="M 33.578125 102.949219 L 103.050781 33.472656 L 341.699219 272.121094 L 272.226562 341.597656 Z M 33.578125 102.949219 " clip-rule="nonzero"/></clipPath><clipPath id="e89ced3248"><path d="M 33.578125 102.949219 L 103.050781 33.472656 L 341.699219 272.121094 L 272.226562 341.597656 Z M 33.578125 102.949219 " clip-rule="nonzero"/></clipPath><clipPath id="c1644df0af"><path d="M 211 208 L 314 208 L 314 309 L 211 309 Z M 211 208 " clip-rule="nonzero"/></clipPath><clipPath id="79c11f8477"><path d="M 33.578125 102.949219 L 103.050781 33.472656 L 341.699219 272.121094 L 272.226562 341.597656 Z M 33.578125 102.949219 " clip-rule="nonzero"/></clipPath><clipPath id="4bfb915e76"><path d="M 33.578125 102.949219 L 103.050781 33.472656 L 341.699219 272.121094 L 272.226562 341.597656 Z M 33.578125 102.949219 " clip-rule="nonzero"/></clipPath><clipPath id="8898dc0c68"><path d="M 40 38 L 221 38 L 221 216 L 40 216 Z M 40 38 " clip-rule="nonzero"/></clipPath><clipPath id="da8fc74eec"><path d="M 33.578125 102.949219 L 103.050781 33.472656 L 341.699219 272.121094 L 272.226562 341.597656 Z M 33.578125 102.949219 " clip-rule="nonzero"/></clipPath><clipPath id="6fa8238842"><path d="M 33.578125 102.949219 L 103.050781 33.472656 L 341.699219 272.121094 L 272.226562 341.597656 Z M 33.578125 102.949219 " clip-rule="nonzero"/></clipPath><clipPath id="a6024948ea"><path d="M 33.757812 102.765625 L 102.96875 33.558594 L 248.425781 179.019531 L 179.21875 248.226562 Z M 33.757812 102.765625 " clip-rule="nonzero"/></clipPath><clipPath id="1be58b4152"><path d="M 33.757812 102.765625 L 102.867188 33.660156 L 248.324219 179.121094 L 179.21875 248.226562 Z M 33.757812 102.765625 " clip-rule="nonzero"/></clipPath><clipPath id="1ed6ea1907"><path d="M 44 38 L 208 38 L 208 209 L 44 209 Z M 44 38 " clip-rule="nonzero"/></clipPath><clipPath id="3fa956d041"><path d="M 33.578125 102.949219 L 103.050781 33.472656 L 341.699219 272.121094 L 272.226562 341.597656 Z M 33.578125 102.949219 " clip-rule="nonzero"/></clipPath><clipPath id="780c282e10"><path d="M 33.578125 102.949219 L 103.050781 33.472656 L 341.699219 272.121094 L 272.226562 341.597656 Z M 33.578125 102.949219 " clip-rule="nonzero"/></clipPath></defs><g clip-path="url(#88a151bfe4)"><g clip-path="url(#41b3b3b2fc)"><g clip-path="url(#5e2a55a4d5)"><g clip-path="url(#754e1a2c35)"><g clip-path="url(#4517b8a489)"><path fill="#000000" d="M 280.09375 131.589844 C 278.855469 132.742188 277.585938 133.871094 276.226562 134.875 C 272.3125 137.746094 268.566406 138.683594 262.761719 138.503906 C 259.390625 138.394531 255.929688 138.367188 252.558594 138.277344 C 251.675781 138.253906 250.777344 138.230469 249.925781 138.464844 C 248.480469 138.863281 247.347656 139.949219 246.277344 140.996094 C 244.71875 142.527344 243.15625 144.058594 241.59375 145.585938 C 232.722656 154.277344 165.585938 227.617188 151.910156 239.917969 C 149.820312 241.796875 144.425781 248.3125 142.496094 250.355469 C 141.183594 251.753906 137.953125 252.238281 136.027344 252.179688 C 135.207031 252.15625 134.414062 251.9375 133.628906 251.679688 C 131.589844 256.859375 127.613281 263.675781 120.421875 272.59375 C 96.46875 302.285156 90.753906 301.527344 89.257812 303.757812 C 87.765625 305.984375 80.742188 314.78125 78.914062 308.867188 C 77.089844 302.949219 70.992188 302.855469 69.753906 302.238281 C 68.515625 301.617188 73.460938 297.261719 79.417969 287.71875 C 85.375 278.167969 132.648438 236.453125 132.648438 236.453125 C 138.300781 230.847656 144.1875 225.234375 149.941406 219.964844 C 161.847656 209.066406 161.050781 209.875 170.507812 200.835938 C 182.660156 189.214844 221.972656 151.480469 236.902344 137.316406 C 241.378906 133.070312 241.910156 129.386719 241.804688 124.632812 C 241.699219 119.882812 240.859375 114.945312 242.511719 110.503906 C 243.859375 106.871094 246.714844 104.042969 249.488281 101.347656 C 252.984375 97.953125 256.925781 94.734375 260.292969 91.210938 C 274.660156 76.210938 290.222656 62.359375 306.792969 49.828125 C 308.535156 48.507812 310.527344 47.761719 312.699219 48.09375 C 295.613281 65.855469 279.054688 82.28125 262.179688 100.246094 C 259.894531 102.675781 258.257812 105.785156 257.828125 109.101562 C 257.5625 111.210938 257.84375 113.59375 259.410156 115.046875 C 260.621094 116.167969 261.1875 117.890625 262.359375 119.054688 C 264.097656 120.789062 266.488281 121.65625 268.800781 122.472656 C 269.578125 122.75 270.359375 123.023438 271.179688 123.101562 C 272.988281 123.265625 274.722656 122.445312 276.269531 121.507812 C 277.570312 120.71875 278.816406 119.828125 279.980469 118.855469 C 298.207031 103.644531 315.710938 85.882812 331.125 67.832031 C 331.765625 70.089844 331.386719 72.511719 330.371094 74.613281 C 329.351562 76.710938 327.835938 78.523438 326.324219 80.300781 C 321.914062 85.476562 317.386719 90.550781 312.75 95.523438 C 304.484375 104.390625 295.550781 114.839844 287.527344 123.929688 C 285.148438 126.625 282.722656 129.136719 280.09375 131.589844 " fill-opacity="1" fill-rule="nonzero"/></g></g></g></g></g><g clip-path="url(#e9cd026fe3)"><g clip-path="url(#21700ce38e)"><g clip-path="url(#c95a12f759)"><path fill="#000000" d="M 97.320312 296.355469 C 97.40625 296.03125 97.445312 295.683594 97.609375 295.410156 C 97.664062 295.316406 98.019531 295.417969 98.238281 295.4375 C 98.160156 295.761719 98.089844 296.082031 98.015625 296.398438 C 97.753906 296.382812 97.539062 296.367188 97.320312 296.355469 Z M 81.824219 309.320312 C 81.5625 309.121094 81.34375 308.863281 81.109375 308.628906 C 80.875 308.390625 80.566406 308.1875 80.429688 307.910156 C 80.335938 307.730469 80.457031 307.433594 80.554688 307.226562 C 80.582031 307.167969 80.902344 307.175781 80.996094 307.257812 C 81.484375 307.707031 81.976562 308.167969 82.398438 308.675781 C 82.496094 308.800781 82.363281 309.148438 82.265625 309.351562 C 82.238281 309.417969 81.933594 309.40625 81.824219 309.320312 Z M 109.738281 277.996094 C 109.871094 278.015625 110.105469 278.234375 110.089844 278.292969 C 109.972656 278.691406 109.800781 279.070312 109.648438 279.441406 C 109.203125 279.976562 108.589844 280.328125 108.171875 279.613281 C 107.769531 278.929688 108.871094 277.855469 109.738281 277.996094 Z M 105.515625 280.90625 C 105.332031 280.617188 105.265625 280.253906 105.148438 279.921875 C 105.371094 279.925781 105.589844 279.925781 105.855469 279.929688 C 105.953125 280.253906 106.058594 280.589844 106.15625 280.925781 C 105.933594 280.925781 105.582031 281.007812 105.515625 280.90625 Z M 71.320312 312.621094 C 70.113281 312.328125 69.070312 311.449219 68.492188 310.34375 C 68.191406 309.769531 68.007812 309.125 68.035156 308.480469 C 68.09375 307.304688 68.835938 306.292969 69.546875 305.359375 C 70.046875 304.710938 70.871094 304.320312 71.679688 304.203125 C 72.851562 304.042969 74.09375 304.324219 75.039062 305.042969 C 75.984375 305.757812 76.601562 306.914062 76.601562 308.09375 C 76.597656 309.503906 75.757812 310.722656 74.765625 311.714844 C 73.890625 312.589844 72.53125 312.914062 71.320312 312.621094 Z M 128.652344 242.992188 C 128.550781 242.929688 128.632812 242.574219 128.628906 242.351562 C 128.96875 242.453125 129.300781 242.554688 129.628906 242.652344 C 129.628906 242.917969 129.632812 243.136719 129.636719 243.359375 C 129.304688 243.246094 128.941406 243.175781 128.652344 242.992188 Z M 118.050781 251.148438 C 118.042969 250.96875 118.03125 250.816406 118.019531 250.664062 C 118.253906 250.753906 118.503906 250.816406 118.707031 250.949219 C 118.777344 250.996094 118.734375 251.238281 118.746094 251.386719 C 118.515625 251.304688 118.277344 251.226562 118.050781 251.148438 Z M 85.132812 283.554688 C 84.867188 283.617188 84.433594 283.796875 84.375 283.71875 C 84.070312 283.316406 84.164062 282.894531 84.558594 282.707031 C 84.835938 282.574219 84.882812 281.683594 85.457031 282.445312 C 85.585938 282.621094 85.472656 282.992188 85.414062 283.253906 C 85.386719 283.378906 85.226562 283.457031 85.132812 283.554688 Z M 74.597656 302.574219 C 74.386719 302.621094 74.160156 302.671875 73.933594 302.722656 C 73.921875 302.574219 73.847656 302.328125 73.917969 302.289062 C 74.101562 302.175781 74.347656 302.148438 74.570312 302.085938 C 74.578125 302.238281 74.589844 302.390625 74.597656 302.574219 Z M 98.164062 278.140625 C 98.164062 278.410156 98.167969 278.628906 98.171875 278.851562 C 97.835938 278.738281 97.476562 278.667969 97.1875 278.484375 C 97.085938 278.417969 97.164062 278.066406 97.164062 277.84375 C 97.5 277.945312 97.839844 278.046875 98.164062 278.140625 Z M 90.011719 289.527344 C 90.085938 290.222656 90.109375 290.90625 90.167969 291.628906 C 89.214844 291.429688 88.671875 291.070312 88.75 290.34375 C 88.816406 289.699219 89.3125 289.410156 90.011719 289.527344 Z M 106.820312 274.304688 C 106.621094 275.003906 106.433594 275.667969 106.226562 276.382812 C 106.054688 276.386719 105.523438 276.015625 105.40625 275.347656 C 105.285156 274.636719 105.738281 274.296875 106.820312 274.304688 Z M 143.519531 238.53125 C 143.519531 238.753906 143.523438 238.976562 143.527344 239.242188 C 143.203125 239.332031 142.867188 239.425781 142.535156 239.519531 C 142.53125 239.296875 142.445312 238.941406 142.542969 238.878906 C 142.828125 238.699219 143.1875 238.640625 143.519531 238.53125 Z M 78.832031 305.074219 C 78.839844 305.222656 78.914062 305.472656 78.847656 305.507812 C 78.660156 305.621094 78.414062 305.648438 78.195312 305.710938 C 78.183594 305.558594 78.171875 305.40625 78.160156 305.226562 C 78.378906 305.175781 78.605469 305.125 78.832031 305.074219 Z M 115.832031 269.425781 C 115.964844 270.234375 115.667969 270.726562 115.019531 270.78125 C 114.304688 270.839844 113.929688 270.3125 113.796875 269.597656 C 114.414062 269.097656 115.199219 269.695312 115.832031 269.425781 Z M 155.964844 229.386719 C 155.902344 229.609375 155.875 229.855469 155.761719 230.042969 C 155.722656 230.109375 155.480469 230.035156 155.328125 230.023438 C 155.378906 229.800781 155.433594 229.574219 155.480469 229.359375 C 155.660156 229.371094 155.8125 229.378906 155.964844 229.386719 Z M 137.980469 247.472656 C 138.660156 247.085938 139.757812 248.203125 139.636719 249.074219 C 139.621094 249.207031 139.40625 249.4375 139.34375 249.414062 C 138.945312 249.289062 138.5625 249.109375 138.1875 248.949219 C 137.644531 248.496094 137.277344 247.875 137.980469 247.472656 Z M 126.558594 261.242188 C 126.652344 261.566406 126.753906 261.90625 126.855469 262.238281 C 126.632812 262.238281 126.28125 262.316406 126.214844 262.21875 C 126.03125 261.929688 125.964844 261.566406 125.847656 261.234375 C 126.070312 261.238281 126.289062 261.238281 126.558594 261.242188 Z M 144.578125 241.621094 C 144.96875 241.800781 145.25 242.234375 145.578125 242.5625 C 145.902344 242.890625 146.265625 243.1875 146.542969 243.554688 C 146.652344 243.707031 146.644531 244.15625 146.550781 244.203125 C 146.242188 244.359375 145.722656 244.582031 145.550781 244.445312 C 144.835938 243.871094 144.199219 243.183594 143.578125 242.503906 C 143.464844 242.371094 143.476562 241.90625 143.566406 241.855469 C 143.875 241.699219 144.320312 241.5 144.578125 241.621094 Z M 112.570312 282.910156 C 124.304688 270.621094 135.824219 258.027344 147.148438 245.363281 C 150.753906 241.324219 153.398438 237.28125 156.382812 232.765625 C 157.277344 231.40625 158.167969 229.988281 158.445312 228.382812 C 158.71875 226.777344 158.238281 224.929688 156.875 224.023438 C 153.949219 222.085938 149.914062 223.023438 146.78125 224.546875 C 143.648438 226.074219 140.953125 228.347656 138.320312 230.625 C 123.835938 243.160156 109.628906 256.683594 95.671875 269.804688 C 83.921875 280.855469 80.257812 284.539062 69.230469 296.308594 C 67.0625 298.625 64.875 300.992188 63.425781 303.820312 C 61.976562 306.644531 61.328125 310.035156 62.371094 313.054688 C 63.003906 314.878906 66.261719 318.148438 68.511719 318.636719 C 70.839844 319.136719 73.441406 319.511719 75.621094 318.582031 C 77.796875 317.652344 80.171875 315.367188 81.851562 313.703125 C 93.460938 302.195312 100.027344 296.042969 112.570312 282.910156 " fill-opacity="1" fill-rule="nonzero"/></g></g></g><g clip-path="url(#9ad0a8aa13)"><g clip-path="url(#87e7664343)"><g clip-path="url(#4cb1eb565e)"><path fill="#000000" d="M 217.949219 156.804688 C 217.839844 156.992188 217.8125 157.234375 217.75 157.457031 C 217.902344 157.464844 218.054688 157.476562 218.238281 157.488281 C 218.285156 157.269531 218.335938 157.042969 218.386719 156.820312 C 218.234375 156.8125 217.988281 156.738281 217.949219 156.804688 Z M 251.46875 103.769531 C 251.121094 103.648438 250.757812 103.519531 250.394531 103.394531 C 250.40625 103.632812 250.34375 104 250.453125 104.078125 C 250.769531 104.289062 251.160156 104.382812 251.519531 104.523438 C 251.503906 104.289062 251.488281 104.050781 251.46875 103.769531 Z M 260.378906 124.410156 C 260.289062 124.175781 260.230469 123.929688 260.09375 123.722656 C 260.046875 123.652344 259.804688 123.695312 259.65625 123.683594 C 259.734375 123.917969 259.820312 124.152344 259.898438 124.378906 C 260.078125 124.390625 260.226562 124.398438 260.378906 124.410156 Z M 187.382812 194.824219 C 187.335938 194.753906 187.097656 194.792969 186.945312 194.785156 C 187.027344 195.015625 187.109375 195.253906 187.183594 195.476562 C 187.367188 195.488281 187.519531 195.5 187.667969 195.507812 C 187.582031 195.277344 187.519531 195.027344 187.382812 194.824219 Z M 155.761719 230.042969 C 155.875 229.855469 155.902344 229.609375 155.964844 229.386719 C 155.8125 229.378906 155.660156 229.371094 155.480469 229.359375 C 155.433594 229.574219 155.378906 229.800781 155.328125 230.023438 C 155.480469 230.035156 155.722656 230.109375 155.761719 230.042969 Z M 154.378906 221.402344 C 154.367188 221.1875 154.425781 220.851562 154.324219 220.78125 C 154.035156 220.585938 153.679688 220.5 153.351562 220.371094 C 153.363281 220.585938 153.378906 220.804688 153.394531 221.058594 C 153.714844 221.171875 154.046875 221.289062 154.378906 221.402344 Z M 231.296875 146.359375 C 231.058594 146.808594 231.863281 147.601562 232.453125 147.550781 C 232.542969 147.546875 232.691406 147.410156 232.675781 147.363281 C 232.578125 147.085938 232.4375 146.820312 232.316406 146.554688 C 231.984375 146.167969 231.546875 145.894531 231.296875 146.359375 Z M 287.089844 65.925781 C 287.039062 66.515625 287.769531 67.21875 288.300781 67.109375 C 288.367188 67.035156 288.484375 66.964844 288.492188 66.875 C 288.542969 66.285156 287.808594 65.574219 287.285156 65.699219 C 287.199219 65.71875 287.097656 65.835938 287.089844 65.925781 Z M 282.960938 75.578125 C 282.933594 74.640625 282.453125 74.15625 281.511719 74.125 C 281.539062 75.070312 282.023438 75.550781 282.960938 75.578125 Z M 241.949219 136.792969 C 241.945312 136.53125 241.945312 136.308594 241.941406 136.085938 C 241.613281 136.195312 241.25 136.25 240.96875 136.433594 C 240.867188 136.496094 240.953125 136.851562 240.957031 137.070312 C 241.289062 136.976562 241.625 136.886719 241.949219 136.792969 Z M 270.269531 86.625 C 270.15625 86.292969 270.089844 85.933594 269.902344 85.644531 C 269.835938 85.542969 269.484375 85.625 269.261719 85.621094 C 269.363281 85.957031 269.464844 86.292969 269.5625 86.621094 C 269.824219 86.621094 270.046875 86.625 270.269531 86.625 Z M 228.167969 150.867188 C 228.28125 151.199219 228.347656 151.5625 228.53125 151.847656 C 228.597656 151.949219 228.953125 151.871094 229.171875 151.871094 C 229.070312 151.539062 228.972656 151.199219 228.875 150.875 C 228.609375 150.871094 228.386719 150.871094 228.167969 150.867188 Z M 216.773438 168.671875 C 216.59375 168.960938 216.53125 169.320312 216.425781 169.652344 C 216.644531 169.652344 216.867188 169.65625 217.136719 169.660156 C 217.222656 169.335938 217.316406 169 217.410156 168.667969 C 217.1875 168.664062 216.835938 168.578125 216.773438 168.671875 Z M 220.65625 159.726562 C 220.722656 159.828125 221.074219 159.75 221.296875 159.75 C 221.195312 159.414062 221.09375 159.078125 221 158.75 C 220.730469 158.75 220.511719 158.746094 220.289062 158.742188 C 220.402344 159.078125 220.46875 159.441406 220.65625 159.726562 Z M 289.011719 70.902344 C 288.789062 70.902344 288.433594 70.816406 288.371094 70.914062 C 288.191406 71.199219 288.132812 71.558594 288.027344 71.886719 C 288.246094 71.890625 288.46875 71.894531 288.734375 71.894531 C 288.824219 71.574219 288.914062 71.238281 289.011719 70.902344 Z M 296.636719 105.828125 C 296.898438 105.832031 297.152344 105.832031 297.464844 105.835938 C 297.570312 105.457031 297.675781 105.066406 297.785156 104.675781 C 297.527344 104.675781 297.113281 104.574219 297.039062 104.6875 C 296.832031 105.019531 296.761719 105.441406 296.636719 105.828125 Z M 185.597656 205.132812 C 185.777344 204.847656 185.839844 204.484375 185.945312 204.15625 C 185.722656 204.152344 185.503906 204.152344 185.238281 204.148438 C 185.148438 204.472656 185.054688 204.804688 184.960938 205.144531 C 185.183594 205.144531 185.535156 205.230469 185.597656 205.132812 Z M 182.992188 207.109375 C 182.660156 207.21875 182.300781 207.277344 182.015625 207.457031 C 181.917969 207.519531 182.003906 207.875 182.003906 208.097656 C 182.34375 208.003906 182.675781 207.910156 183 207.820312 C 182.996094 207.554688 182.996094 207.332031 182.992188 207.109375 Z M 176.132812 199.117188 C 176.007812 199.148438 176.042969 199.773438 176.003906 200.121094 C 176.152344 200.273438 176.300781 200.539062 176.453125 200.539062 C 176.597656 200.539062 176.84375 200.296875 176.871094 200.125 C 176.960938 199.570312 177.078125 198.878906 176.132812 199.117188 Z M 170.65625 207.25 C 170.683594 206.902344 170.769531 206.546875 170.730469 206.203125 C 170.707031 206.039062 170.449219 205.785156 170.300781 205.785156 C 170.15625 205.785156 169.898438 206.035156 169.886719 206.195312 C 169.859375 206.539062 169.929688 206.898438 170.03125 207.234375 C 170.050781 207.292969 170.421875 207.25 170.65625 207.25 Z M 189.554688 196.234375 C 189.289062 196.230469 189.066406 196.230469 188.84375 196.226562 C 188.960938 196.558594 189.027344 196.921875 189.210938 197.210938 C 189.277344 197.308594 189.628906 197.230469 189.851562 197.230469 C 189.753906 196.894531 189.648438 196.558594 189.554688 196.234375 Z M 192.816406 195.273438 C 193.035156 195.277344 193.394531 195.363281 193.453125 195.265625 C 193.632812 194.980469 193.695312 194.621094 193.800781 194.289062 C 193.578125 194.289062 193.359375 194.285156 193.09375 194.28125 C 193.003906 194.605469 192.910156 194.9375 192.816406 195.273438 Z M 164.921875 218.179688 C 164.808594 217.847656 164.738281 217.484375 164.554688 217.191406 C 164.492188 217.09375 164.136719 217.175781 163.917969 217.171875 C 164.015625 217.507812 164.117188 217.84375 164.214844 218.171875 C 164.480469 218.175781 164.703125 218.175781 164.921875 218.179688 Z M 163.636719 223.5 C 163.347656 223.316406 162.984375 223.25 162.652344 223.132812 C 162.65625 223.355469 162.65625 223.574219 162.660156 223.839844 C 162.984375 223.9375 163.324219 224.039062 163.65625 224.140625 C 163.65625 223.917969 163.738281 223.566406 163.636719 223.5 Z M 261.808594 98.382812 C 261.9375 98.363281 262.050781 98.1875 262.167969 98.082031 C 262.367188 97.296875 261.394531 96.285156 260.527344 96.40625 C 260.390625 96.421875 260.210938 96.578125 260.175781 96.707031 C 259.953125 97.488281 260.941406 98.503906 261.808594 98.382812 Z M 270.015625 131.945312 C 269.953125 130.5625 270.609375 129.90625 271.992188 129.972656 C 272.058594 131.351562 271.398438 132.011719 270.015625 131.945312 " fill-opacity="1" fill-rule="nonzero"/></g></g></g><g clip-path="url(#f2a4300cff)"><g clip-path="url(#79be62af1b)"><g clip-path="url(#e89ced3248)"><path fill="#000000" d="M 302.34375 299.734375 C 297.425781 301.703125 293.121094 294.050781 298.742188 291.417969 C 304.746094 288.601562 307.820312 297.542969 302.34375 299.734375 Z M 224.105469 202.203125 C 222.820312 203.492188 221.550781 204.792969 220.289062 206.105469 C 214.894531 207.488281 212.617188 211.105469 211.621094 215.601562 C 210.222656 217.210938 208.839844 218.835938 207.476562 220.476562 C 226.488281 240.011719 245.492188 258.859375 264.5 278.394531 C 273.039062 287.167969 281.613281 295.976562 291.222656 303.570312 C 294.359375 306.046875 298.070312 308.519531 302.03125 307.933594 C 304.34375 307.589844 306.367188 306.238281 308.230469 304.828125 C 310.195312 303.339844 312.160156 301.644531 313.054688 299.347656 C 315.035156 294.28125 311.164062 288.964844 307.519531 284.929688 C 281.320312 255.914062 253.523438 227.949219 224.105469 202.203125 " fill-opacity="1" fill-rule="nonzero"/></g></g></g><g clip-path="url(#c1644df0af)"><g clip-path="url(#79c11f8477)"><g clip-path="url(#4bfb915e76)"><path fill="#000000" d="M 236.9375 216.304688 C 236.722656 216.246094 236.488281 216.21875 236.304688 216.109375 C 236.242188 216.074219 236.3125 215.835938 236.320312 215.691406 C 236.539062 215.738281 236.757812 215.789062 236.964844 215.839844 C 236.957031 216.015625 236.945312 216.160156 236.9375 216.304688 Z M 229.207031 214.160156 C 228.996094 214.097656 228.757812 214.074219 228.574219 213.964844 C 228.515625 213.925781 228.582031 213.6875 228.589844 213.542969 C 228.808594 213.59375 229.027344 213.644531 229.238281 213.691406 C 229.226562 213.867188 229.21875 214.011719 229.207031 214.160156 Z M 219.929688 215.800781 C 219.785156 215.898438 219.617188 215.957031 219.449219 216.011719 C 219.582031 216.308594 219.550781 216.605469 219.148438 216.839844 C 218.484375 217.226562 217.445312 216.164062 217.574219 215.320312 C 217.597656 215.191406 217.804688 214.964844 217.863281 214.984375 C 218.25 215.097656 218.613281 215.269531 218.976562 215.414062 C 219.097656 215.511719 219.199219 215.621094 219.289062 215.730469 C 219.292969 215.691406 219.292969 215.65625 219.296875 215.609375 C 219.515625 215.535156 219.742188 215.457031 219.964844 215.378906 C 219.957031 215.523438 219.996094 215.753906 219.929688 215.800781 Z M 214.332031 215.0625 C 214.242188 215.054688 214.132812 214.957031 214.109375 214.871094 C 213.988281 214.363281 214.675781 213.660156 215.242188 213.710938 C 215.332031 213.71875 215.398438 213.832031 215.472656 213.894531 C 215.574219 214.410156 214.902344 215.109375 214.332031 215.0625 Z M 234.664062 211.601562 C 231.261719 211.519531 227.878906 211.300781 224.546875 210.667969 C 223.238281 210.421875 220.617188 209.511719 217.835938 208.734375 C 215.601562 211.132812 213.398438 213.558594 211.25 216.035156 C 212.917969 217.136719 215 217.335938 217.507812 217.46875 C 223.476562 217.792969 229.445312 218.117188 235.414062 218.441406 C 237.789062 218.566406 240.167969 218.699219 242.546875 218.828125 C 239.929688 216.402344 237.304688 213.992188 234.664062 211.601562 Z M 229.652344 233.144531 C 229.398438 233.148438 229.183594 233.148438 228.96875 233.152344 C 229.078125 232.832031 229.144531 232.480469 229.324219 232.203125 C 229.382812 232.105469 229.726562 232.183594 229.9375 232.183594 C 229.84375 232.507812 229.746094 232.832031 229.652344 233.144531 Z M 225.105469 233.5 C 225.210938 233.632812 225.117188 233.921875 225.117188 234.140625 C 224.246094 234.148438 223.371094 234.191406 222.511719 234.117188 C 222.40625 234.109375 222.1875 233.339844 222.324219 233.179688 C 222.398438 233.085938 222.476562 232.984375 222.558594 232.875 C 222.140625 232.902344 221.972656 232.660156 222.222656 232.394531 C 223.171875 231.375 224.203125 230.421875 225.242188 229.492188 C 225.332031 229.40625 225.714844 229.65625 225.859375 229.707031 C 225.019531 230.546875 224.175781 231.390625 223.371094 232.199219 C 223.515625 232.167969 223.679688 232.179688 223.863281 232.265625 C 224.367188 232.492188 224.734375 233.046875 225.105469 233.5 Z M 253.617188 229.257812 C 244.957031 228.9375 236.292969 228.917969 227.636719 229.191406 C 227.5 229.503906 227.132812 229.847656 226.671875 230.023438 C 226.546875 230.078125 226.371094 230.074219 226.253906 230.027344 C 225.851562 229.871094 225.875 229.667969 226.285156 229.417969 C 226.386719 229.359375 226.480469 229.289062 226.578125 229.222656 C 223.21875 229.335938 219.863281 229.488281 216.507812 229.691406 C 219.074219 232.300781 221.632812 234.917969 224.195312 237.511719 C 229.109375 237.574219 234.132812 237.078125 238.664062 237.089844 C 240.417969 237.089844 252.359375 237.234375 261.933594 237.3125 C 259.179688 234.609375 256.402344 231.925781 253.617188 229.257812 Z M 262.234375 252.296875 C 262.136719 252.566406 262 252.824219 261.886719 253.074219 C 261.566406 253.449219 261.144531 253.710938 260.902344 253.257812 C 260.667969 252.824219 261.445312 252.0625 262.015625 252.113281 C 262.101562 252.121094 262.246094 252.253906 262.234375 252.296875 Z M 263.464844 248.902344 C 263.464844 249.019531 263.464844 249.132812 263.464844 249.242188 C 263.207031 249.15625 262.929688 249.097656 262.6875 248.992188 C 256.792969 249.640625 250.894531 250.160156 244.996094 249.792969 C 241.964844 249.601562 238.605469 248.988281 235.285156 248.726562 C 235.734375 249.179688 236.183594 249.632812 236.632812 250.085938 C 236.699219 249.863281 236.765625 249.640625 236.886719 249.453125 C 236.949219 249.355469 237.289062 249.433594 237.503906 249.433594 C 237.394531 249.753906 237.328125 250.105469 237.152344 250.382812 C 237.125 250.421875 237.054688 250.425781 236.96875 250.429688 C 237.46875 250.929688 237.964844 251.4375 238.464844 251.9375 C 238.617188 250.601562 239.722656 249.988281 240.765625 249.480469 C 241.070312 249.332031 241.816406 250 242.273438 250.394531 C 242.363281 250.472656 242.0625 251.003906 241.941406 251.324219 C 240.644531 250.601562 239.953125 252.316406 238.832031 252.308594 C 240.035156 253.527344 241.238281 254.746094 242.445312 255.964844 C 246.089844 255.835938 249.734375 255.703125 253.378906 255.574219 C 255.277344 255.507812 269.238281 254.863281 279.035156 254.507812 C 276.890625 252.300781 274.738281 250.105469 272.574219 247.914062 C 269.539062 248.203125 266.503906 248.5625 263.464844 248.902344 Z M 283.476562 273.132812 C 283.160156 273.03125 282.8125 272.96875 282.535156 272.792969 C 282.4375 272.734375 282.523438 272.390625 282.523438 272.179688 C 282.84375 272.28125 283.191406 272.34375 283.46875 272.515625 C 283.5625 272.578125 283.480469 272.917969 283.476562 273.132812 Z M 275.554688 270.273438 C 275.339844 270.210938 275.105469 270.183594 274.921875 270.074219 C 274.859375 270.039062 274.929688 269.800781 274.9375 269.652344 C 275.15625 269.703125 275.371094 269.753906 275.585938 269.804688 C 275.574219 269.976562 275.566406 270.125 275.554688 270.273438 Z M 256.601562 267.035156 C 256.601562 267.222656 256.601562 267.394531 256.601562 267.5625 C 256.28125 267.457031 255.929688 267.398438 255.65625 267.222656 C 255.613281 267.195312 255.609375 267.109375 255.613281 267.003906 C 254.828125 266.976562 254.042969 266.957031 253.257812 266.925781 C 255.714844 269.421875 258.175781 271.929688 260.628906 274.445312 C 263.707031 274.324219 266.789062 274.234375 269.859375 274.09375 C 271.625 274.015625 283.242188 273.109375 292.167969 272.632812 C 292.171875 272.457031 292.167969 272.28125 292.140625 272.105469 C 293.007812 272.101562 293.875 272.09375 294.742188 272.085938 C 294.71875 272.246094 294.695312 272.386719 294.671875 272.511719 C 295.15625 272.488281 295.628906 272.46875 296.082031 272.449219 C 294.078125 270.292969 292.066406 268.140625 290.042969 266 C 278.929688 267.007812 267.757812 267.351562 256.601562 267.035156 Z M 284.347656 285.625 C 284.023438 285.53125 283.699219 285.445312 283.390625 285.355469 C 283.390625 285.097656 283.390625 284.882812 283.394531 284.671875 C 283.714844 284.773438 284.0625 284.832031 284.339844 285.007812 C 284.433594 285.070312 284.351562 285.410156 284.347656 285.625 Z M 284.867188 289.351562 C 284.652344 289.289062 284.417969 289.261719 284.234375 289.152344 C 284.171875 289.117188 284.242188 288.878906 284.25 288.734375 C 284.464844 288.792969 284.703125 288.820312 284.882812 288.929688 C 284.945312 288.96875 284.878906 289.203125 284.867188 289.351562 Z M 275.679688 287.613281 C 275.640625 286.28125 276.289062 285.632812 277.621094 285.671875 C 277.660156 287.003906 277.011719 287.652344 275.679688 287.613281 Z M 296.898438 283.578125 C 296.261719 283.609375 295.628906 283.625 294.996094 283.644531 C 294.9375 283.820312 294.878906 283.992188 294.820312 284.15625 C 294.644531 284.167969 294.5 284.175781 294.351562 284.183594 C 294.417969 284.011719 294.480469 283.832031 294.5625 283.664062 C 290.398438 283.800781 286.234375 283.789062 282.074219 283.667969 C 281.660156 284.609375 281.703125 285.800781 280.503906 286.304688 C 280.277344 286.53125 280.082031 286.839844 279.816406 286.960938 C 279.582031 287.066406 279.210938 287.070312 279.007812 286.953125 C 278.214844 286.488281 278.4375 283.980469 279.277344 283.902344 C 279.707031 283.863281 280.082031 283.761719 280.417969 283.613281 C 279.625 283.585938 278.832031 283.554688 278.039062 283.519531 C 278.046875 283.609375 278.003906 283.765625 278 283.875 C 277.78125 283.816406 277.546875 283.789062 277.363281 283.679688 C 277.328125 283.660156 277.335938 283.578125 277.347656 283.488281 C 274.566406 283.359375 271.789062 283.199219 269.007812 283.007812 C 271.789062 285.84375 274.589844 288.65625 277.445312 291.410156 C 277.636719 291.394531 277.828125 291.371094 278.019531 291.355469 C 288.933594 290.503906 299.855469 289.753906 310.773438 288.976562 C 309.785156 287.535156 308.644531 286.171875 307.519531 284.929688 C 306.898438 284.238281 306.269531 283.550781 305.644531 282.863281 C 302.742188 283.214844 299.820312 283.4375 296.898438 283.578125 Z M 262.59375 257.308594 C 262.8125 257.359375 263.027344 257.410156 263.238281 257.460938 C 263.226562 257.636719 263.21875 257.78125 263.210938 257.929688 C 262.996094 257.867188 262.761719 257.839844 262.578125 257.730469 C 262.515625 257.695312 262.585938 257.457031 262.59375 257.308594 Z M 251.457031 257.335938 C 251.675781 257.386719 251.894531 257.433594 252.105469 257.484375 C 252.09375 257.660156 252.082031 257.808594 252.074219 257.953125 C 251.859375 257.894531 251.621094 257.867188 251.441406 257.757812 C 251.378906 257.71875 251.449219 257.480469 251.457031 257.335938 Z M 230.109375 210.175781 C 230.183594 209.949219 230.261719 209.722656 230.339844 209.507812 C 230.511719 209.496094 230.660156 209.484375 230.804688 209.476562 C 230.71875 209.703125 230.664062 209.941406 230.53125 210.136719 C 230.484375 210.207031 230.257812 210.167969 230.109375 210.175781 Z M 257.75 257.613281 C 257.835938 257.621094 257.902344 257.734375 257.976562 257.800781 C 258.085938 258.3125 257.40625 259.011719 256.839844 258.964844 C 256.75 258.957031 256.636719 258.859375 256.617188 258.777344 C 256.496094 258.269531 257.179688 257.5625 257.75 257.613281 Z M 275.328125 280.773438 C 275.414062 280.78125 275.558594 280.914062 275.542969 280.957031 C 275.445312 281.222656 275.3125 281.484375 275.199219 281.734375 C 274.878906 282.109375 274.457031 282.371094 274.214844 281.917969 C 273.980469 281.484375 274.757812 280.722656 275.328125 280.773438 Z M 246.53125 226.863281 C 246.617188 226.871094 246.683594 226.984375 246.757812 227.046875 C 246.867188 227.5625 246.1875 228.261719 245.621094 228.210938 C 245.53125 228.203125 245.417969 228.105469 245.398438 228.023438 C 245.277344 227.515625 245.960938 226.8125 246.53125 226.863281 Z M 241.195312 221.527344 C 241.246094 222.09375 240.484375 222.871094 240.046875 222.640625 C 239.597656 222.398438 239.859375 221.976562 240.230469 221.65625 C 240.484375 221.539062 240.746094 221.40625 241.011719 221.308594 C 241.054688 221.292969 241.1875 221.4375 241.195312 221.527344 Z M 308.382812 293.800781 C 308.300781 293.78125 308.203125 293.664062 308.195312 293.578125 C 308.144531 293.007812 308.847656 292.332031 309.359375 292.4375 C 309.421875 292.511719 309.539062 292.582031 309.546875 292.667969 C 309.59375 293.238281 308.894531 293.917969 308.382812 293.800781 Z M 273.675781 265.773438 C 273.082031 265.863281 272.488281 265.875 271.761719 265.917969 C 272.007812 265.488281 272.160156 265.046875 272.460938 264.757812 C 272.917969 264.316406 273.585938 264.492188 273.851562 265.109375 C 273.921875 265.273438 273.75 265.757812 273.675781 265.773438 Z M 306.496094 291.277344 C 306.460938 290.949219 306.546875 290.605469 306.585938 290.269531 C 306.808594 290.269531 307.171875 290.214844 307.183594 290.273438 C 307.277344 290.59375 307.339844 290.941406 307.308594 291.273438 C 307.292969 291.429688 307.042969 291.675781 306.898438 291.675781 C 306.757812 291.675781 306.511719 291.433594 306.496094 291.277344 Z M 219.347656 227.378906 C 219.191406 227.367188 218.949219 227.117188 218.953125 226.976562 C 218.953125 226.832031 219.195312 226.582031 219.351562 226.566406 C 219.683594 226.527344 220.027344 226.609375 220.363281 226.640625 C 220.363281 226.863281 220.40625 227.222656 220.351562 227.242188 C 220.03125 227.339844 219.679688 227.40625 219.347656 227.378906 Z M 218.488281 227.40625 C 218.148438 227.367188 217.546875 227.402344 217.519531 227.277344 C 217.285156 226.359375 217.953125 226.476562 218.492188 226.570312 C 218.652344 226.59375 218.890625 226.832031 218.886719 226.976562 C 218.886719 227.117188 218.632812 227.265625 218.488281 227.40625 Z M 228.070312 224.503906 C 228.179688 224.183594 228.246094 223.832031 228.425781 223.554688 C 228.484375 223.460938 228.828125 223.535156 229.039062 223.535156 C 228.929688 223.855469 228.867188 224.207031 228.691406 224.484375 C 228.628906 224.582031 228.285156 224.503906 228.070312 224.503906 Z M 260.449219 259.914062 C 260.78125 259.878906 261.125 259.957031 261.460938 259.992188 C 261.460938 260.210938 261.503906 260.574219 261.449219 260.589844 C 261.125 260.6875 260.777344 260.753906 260.445312 260.730469 C 260.292969 260.714844 260.046875 260.464844 260.046875 260.324219 C 260.050781 260.179688 260.292969 259.933594 260.449219 259.914062 Z M 265.304688 258.5 C 265.027344 258.675781 264.675781 258.742188 264.355469 258.851562 C 264.355469 258.636719 264.355469 258.421875 264.359375 258.167969 C 264.671875 258.074219 265 257.976562 265.324219 257.882812 C 265.320312 258.09375 265.402344 258.4375 265.304688 258.5 Z M 278.746094 265.128906 C 278.648438 265.070312 278.734375 264.726562 278.734375 264.515625 C 279.054688 264.617188 279.402344 264.675781 279.679688 264.851562 C 279.773438 264.914062 279.691406 265.253906 279.6875 265.46875 C 279.371094 265.363281 279.023438 265.304688 278.746094 265.128906 Z M 243.441406 226.589844 C 243.4375 226.847656 243.4375 227.0625 243.433594 227.273438 C 243.113281 227.171875 242.769531 227.109375 242.492188 226.941406 C 242.394531 226.875 242.480469 226.535156 242.480469 226.320312 C 242.804688 226.414062 243.128906 226.503906 243.441406 226.589844 Z M 229.492188 227.890625 C 229.632812 227.886719 229.773438 228.144531 229.914062 228.285156 C 229.871094 228.625 229.894531 229.222656 229.769531 229.257812 C 228.851562 229.503906 228.980469 228.835938 229.074219 228.292969 C 229.105469 228.132812 229.34375 227.890625 229.492188 227.890625 Z M 233.570312 223.503906 C 233.316406 223.503906 233.101562 223.507812 232.886719 223.507812 C 232.996094 223.1875 233.058594 222.835938 233.238281 222.558594 C 233.300781 222.460938 233.640625 222.542969 233.855469 222.539062 C 233.757812 222.863281 233.664062 223.191406 233.570312 223.503906 Z M 246.171875 247.445312 C 246.382812 247.445312 246.597656 247.441406 246.855469 247.441406 C 246.945312 247.753906 247.035156 248.074219 247.125 248.402344 C 246.910156 248.402344 246.570312 248.484375 246.507812 248.390625 C 246.335938 248.117188 246.273438 247.765625 246.171875 247.445312 Z M 249.105469 240.695312 C 249.429688 240.785156 249.75 240.878906 250.066406 240.964844 C 250.0625 241.222656 250.0625 241.433594 250.058594 241.648438 C 249.738281 241.542969 249.390625 241.488281 249.117188 241.3125 C 249.019531 241.25 249.105469 240.910156 249.105469 240.695312 Z M 260 260.34375 C 260.003906 260.347656 259.738281 260.707031 259.574219 260.75 C 258.59375 261.003906 258.027344 260.457031 257.628906 259.691406 C 257.546875 259.527344 257.585938 259.101562 257.628906 259.09375 C 257.972656 259.019531 258.433594 258.867188 258.664062 259.023438 C 259.175781 259.367188 259.578125 259.878906 260 260.34375 Z M 239.46875 245.21875 C 239.351562 244.382812 240.324219 243.445312 241.085938 243.640625 C 241.1875 243.753906 241.359375 243.859375 241.378906 243.988281 C 241.496094 244.828125 240.519531 245.777344 239.761719 245.558594 C 239.640625 245.523438 239.484375 245.347656 239.46875 245.21875 Z M 306.230469 294.105469 C 306.0625 294.191406 305.640625 294.15625 305.628906 294.117188 C 305.617188 294.054688 305.601562 293.988281 305.589844 293.925781 C 305.5625 293.925781 305.535156 293.933594 305.511719 293.929688 C 305.40625 293.929688 305.25 293.769531 305.253906 293.671875 C 305.261719 293.582031 305.402344 293.4375 305.511719 293.398438 C 305.511719 293.277344 305.519531 293.164062 305.574219 293.082031 C 305.933594 292.566406 306.445312 292.15625 306.917969 291.726562 C 306.921875 291.71875 307.277344 291.984375 307.320312 292.144531 C 307.558594 293.117188 307.003906 293.695312 306.230469 294.105469 Z M 270.988281 260.75 C 270.597656 261.214844 270.203125 262 269.449219 261.660156 C 268.945312 261.433594 268.578125 260.878906 268.203125 260.425781 C 268.101562 260.292969 268.191406 260 268.195312 259.78125 C 269.0625 259.777344 269.9375 259.738281 270.800781 259.808594 C 270.90625 259.816406 271.125 260.585938 270.988281 260.75 Z M 230.015625 227.4375 C 229.5 227.824219 229.308594 228.027344 229.027344 227.378906 C 228.945312 227.191406 228.921875 226.863281 229.03125 226.722656 C 229.695312 225.886719 230.40625 225.085938 231.925781 223.3125 C 231.910156 225.460938 231.90625 226.359375 231.898438 227.304688 C 231.257812 227.328125 230.4375 227.117188 230.015625 227.4375 Z M 298.289062 301.617188 C 298.246094 301.6875 298.015625 301.644531 297.871094 301.65625 C 297.949219 301.429688 298.023438 301.203125 298.097656 300.988281 C 298.273438 300.976562 298.421875 300.964844 298.566406 300.957031 C 298.480469 301.183594 298.421875 301.421875 298.289062 301.617188 Z M 302.34375 299.734375 C 300.757812 300.367188 299.242188 300.003906 298.097656 299.128906 C 297.414062 299.242188 296.730469 299.363281 296.046875 299.472656 C 294.164062 299.773438 290.171875 299.738281 287.15625 300.230469 C 288.492188 301.363281 289.84375 302.480469 291.222656 303.570312 C 294.359375 306.046875 298.070312 308.519531 302.03125 307.933594 C 304.34375 307.589844 306.367188 306.238281 308.230469 304.828125 C 310.195312 303.339844 312.160156 301.644531 313.054688 299.347656 C 313.445312 298.347656 313.601562 297.34375 313.585938 296.335938 C 310.550781 296.933594 307.515625 297.492188 304.472656 298.035156 C 304.011719 298.746094 303.3125 299.347656 302.34375 299.734375 " fill-opacity="1" fill-rule="nonzero"/></g></g></g><g clip-path="url(#8898dc0c68)"><g clip-path="url(#da8fc74eec)"><g clip-path="url(#6fa8238842)"><g clip-path="url(#a6024948ea)"><g clip-path="url(#1be58b4152)"><path fill="#000000" d="M 121.191406 73.070312 C 132.847656 85.078125 144.507812 97.085938 156.164062 109.09375 C 157.367188 110.332031 158.597656 111.613281 159.265625 113.207031 C 159.9375 114.804688 159.921875 116.804688 158.777344 118.105469 C 157.503906 119.539062 155.222656 119.675781 153.453125 118.9375 C 151.683594 118.199219 150.308594 116.773438 148.984375 115.386719 C 133.34375 98.972656 116.527344 83.292969 102.792969 65.207031 C 102.117188 64.316406 101.429688 63.382812 101.214844 62.289062 C 101 61.195312 101.402344 59.890625 102.421875 59.429688 C 103.410156 58.980469 104.558594 59.449219 105.519531 59.960938 C 111.558594 63.175781 116.425781 68.164062 121.191406 73.070312 Z M 144.558594 127.777344 C 145.246094 128.789062 145.875 130.089844 145.328125 131.183594 C 145.023438 131.789062 144.417969 132.183594 143.792969 132.421875 C 140.222656 133.792969 136.546875 130.941406 133.796875 128.296875 C 123.097656 117.996094 112.550781 107.539062 102.164062 96.925781 C 97.519531 92.179688 92.535156 87.589844 88.078125 82.6875 C 85.742188 80.125 84.5625 71.4375 90.261719 74.707031 C 93.59375 76.617188 96.363281 79.339844 99.09375 82.039062 C 112.1875 94.96875 125.28125 107.902344 138.375 120.832031 C 140.585938 123.015625 142.808594 125.210938 144.558594 127.777344 Z M 132.503906 138.78125 C 133.425781 140.71875 133.570312 143.175781 132.308594 144.910156 C 130.828125 146.945312 127.84375 147.378906 125.453125 146.585938 C 123.066406 145.796875 121.136719 144.050781 119.296875 142.335938 C 110.453125 134.097656 100.9375 125.511719 92.953125 116.5 C 85.058594 107.589844 80.503906 104.265625 72.359375 95.003906 C 70.449219 92.832031 69.171875 89.210938 71.171875 87.117188 C 73.082031 85.113281 76.441406 86.269531 78.773438 87.753906 C 83.660156 90.863281 87.882812 94.882812 92.070312 98.882812 C 104.234375 110.496094 116.367188 122.140625 128.464844 133.824219 C 130.007812 135.3125 131.578125 136.847656 132.503906 138.78125 Z M 116.425781 154.566406 C 117.824219 157.203125 115.164062 160.261719 112.390625 159.152344 C 112.375 159.144531 112.355469 159.136719 112.335938 159.128906 C 110.453125 158.359375 108.957031 156.882812 107.511719 155.449219 C 93.21875 141.152344 78.855469 126.929688 64.65625 112.535156 C 61.757812 109.59375 58.675781 106.289062 58.597656 102.082031 C 58.589844 101.484375 58.765625 100.875 59.207031 100.480469 C 60.105469 99.667969 61.1875 100.238281 62.042969 100.804688 C 69.828125 105.972656 76.507812 112.605469 83.136719 119.191406 C 90.828125 126.839844 98.523438 134.488281 106.214844 142.136719 C 110.023438 145.921875 113.9375 149.875 116.425781 154.566406 Z M 105.972656 38.339844 C 102.855469 37.714844 99.992188 40.046875 97.664062 42.214844 C 81.65625 57.117188 65.652344 72.027344 49.644531 86.929688 C 44.925781 91.328125 38.191406 99.066406 41.089844 106.664062 C 43.226562 112.277344 49.503906 118.828125 53.902344 122.703125 C 72.269531 138.882812 90.59375 155.113281 108.941406 171.316406 C 112.03125 174.046875 115.695312 176.964844 119.785156 176.390625 C 122.445312 176.019531 124.652344 174.214844 126.695312 172.46875 C 133.757812 166.410156 140.628906 160.140625 147.328125 153.6875 C 149.476562 156.019531 151.875 158.042969 153.042969 159.167969 C 160.195312 166.058594 167.347656 172.949219 174.503906 179.839844 C 186.875 191.761719 199.253906 203.683594 211.625 215.605469 C 214.441406 212.371094 217.332031 209.210938 220.296875 206.113281 C 198.945312 185.734375 177.597656 165.359375 156.246094 144.984375 C 156.226562 144.964844 156.207031 144.949219 156.1875 144.929688 C 162.566406 138.457031 168.765625 131.8125 174.765625 124.988281 C 176.730469 122.75 178.792969 120.195312 178.730469 117.214844 C 178.671875 114.324219 176.628906 111.910156 174.691406 109.761719 C 153.859375 86.664062 132.582031 63.964844 110.875 41.683594 C 109.472656 40.242188 107.945312 38.730469 105.972656 38.339844 " fill-opacity="1" fill-rule="nonzero"/></g></g></g></g></g><g clip-path="url(#1ed6ea1907)"><g clip-path="url(#3fa956d041)"><g clip-path="url(#780c282e10)"><path fill="#000000" d="M 119.800781 123.609375 C 119.703125 123.617188 119.527344 123.789062 119.503906 123.902344 C 119.417969 124.273438 119.308594 124.738281 119.945312 124.53125 C 120.03125 124.507812 120.035156 124.097656 120.078125 123.863281 C 119.984375 123.773438 119.898438 123.605469 119.800781 123.609375 Z M 138.234375 76.941406 C 138.164062 77.160156 138.082031 77.382812 138.003906 77.609375 C 138.152344 77.601562 138.382812 77.644531 138.429688 77.574219 C 138.558594 77.378906 138.617188 77.136719 138.703125 76.914062 C 138.558594 76.921875 138.410156 76.929688 138.234375 76.941406 Z M 114.742188 93.675781 C 114.5625 93.566406 114.328125 93.539062 114.113281 93.480469 C 114.101562 93.625 114.03125 93.863281 114.097656 93.902344 C 114.277344 94.007812 114.515625 94.035156 114.730469 94.097656 C 114.738281 93.949219 114.808594 93.714844 114.742188 93.675781 Z M 80.371094 131.328125 C 80.550781 131.441406 80.789062 131.46875 81.003906 131.527344 C 81.011719 131.382812 81.082031 131.144531 81.019531 131.105469 C 80.835938 130.996094 80.601562 130.96875 80.386719 130.910156 C 80.375 131.054688 80.308594 131.292969 80.371094 131.328125 Z M 119.480469 91.375 C 119.269531 91.328125 119.050781 91.277344 118.832031 91.226562 C 118.824219 91.375 118.753906 91.609375 118.820312 91.648438 C 119 91.757812 119.234375 91.785156 119.449219 91.84375 C 119.457031 91.699219 119.46875 91.550781 119.480469 91.375 Z M 137.980469 88.746094 C 138.125 88.738281 138.355469 88.777344 138.402344 88.710938 C 138.535156 88.511719 138.59375 88.273438 138.679688 88.046875 C 138.53125 88.058594 138.300781 88.015625 138.253906 88.085938 C 138.125 88.28125 138.066406 88.523438 137.980469 88.746094 Z M 130.453125 99.359375 C 130.351562 99.460938 130.183594 99.558594 130.15625 99.671875 C 130.070312 100.042969 129.957031 100.503906 130.597656 100.304688 C 130.679688 100.277344 130.6875 99.867188 130.726562 99.632812 C 130.636719 99.542969 130.542969 99.449219 130.453125 99.359375 Z M 130.75 99.046875 C 130.785156 98.816406 130.753906 98.582031 130.703125 98.367188 C 130.695312 98.332031 130.445312 98.375 130.292969 98.386719 C 130.253906 98.617188 130.183594 98.855469 130.195312 99.082031 C 130.199219 99.1875 130.359375 99.34375 130.457031 99.335938 C 130.554688 99.332031 130.734375 99.152344 130.75 99.046875 Z M 78.78125 139.511719 C 78.820312 139.578125 79.0625 139.507812 79.203125 139.496094 C 79.152344 139.277344 79.105469 139.0625 79.054688 138.851562 C 78.878906 138.863281 78.734375 138.871094 78.585938 138.878906 C 78.648438 139.09375 78.675781 139.332031 78.78125 139.511719 Z M 118.5625 101.394531 C 118.554688 101.492188 118.710938 101.652344 118.816406 101.65625 C 119.042969 101.664062 119.285156 101.605469 119.511719 101.527344 C 119.546875 101.511719 119.53125 101.269531 119.539062 101.113281 C 119.3125 101.105469 119.078125 101.0625 118.851562 101.101562 C 118.746094 101.121094 118.566406 101.296875 118.5625 101.394531 Z M 135.472656 129.695312 C 135.265625 129.648438 135.046875 129.597656 134.828125 129.546875 C 134.820312 129.691406 134.75 129.929688 134.816406 129.96875 C 134.996094 130.078125 135.234375 130.105469 135.445312 130.164062 C 135.457031 130.015625 135.464844 129.871094 135.472656 129.695312 Z M 133.101562 146.914062 C 132.921875 146.808594 132.683594 146.777344 132.46875 146.71875 C 132.460938 146.867188 132.390625 147.101562 132.453125 147.140625 C 132.636719 147.25 132.871094 147.277344 133.085938 147.335938 C 133.097656 147.1875 133.167969 146.953125 133.101562 146.914062 Z M 174.042969 109.464844 C 173.898438 109.472656 173.671875 109.433594 173.621094 109.5 C 173.492188 109.699219 173.433594 109.9375 173.347656 110.164062 C 173.492188 110.152344 173.640625 110.144531 173.816406 110.132812 C 173.890625 109.917969 173.96875 109.691406 174.042969 109.464844 Z M 48.40625 100.761719 C 48.441406 100.828125 48.679688 100.753906 48.828125 100.746094 C 48.777344 100.53125 48.726562 100.3125 48.675781 100.101562 C 48.5 100.113281 48.355469 100.121094 48.210938 100.132812 C 48.269531 100.34375 48.296875 100.582031 48.40625 100.761719 Z M 95.273438 58.796875 C 95.0625 58.75 94.847656 58.699219 94.628906 58.648438 C 94.617188 58.796875 94.550781 59.035156 94.613281 59.070312 C 94.796875 59.179688 95.03125 59.207031 95.246094 59.265625 C 95.253906 59.117188 95.261719 58.972656 95.273438 58.796875 Z M 121.976562 68.101562 C 122.109375 67.90625 122.167969 67.664062 122.253906 67.4375 C 122.109375 67.449219 121.960938 67.457031 121.785156 67.46875 C 121.710938 67.683594 121.632812 67.914062 121.554688 68.136719 C 121.703125 68.128906 121.929688 68.167969 121.976562 68.101562 Z M 120.925781 70.792969 C 120.855469 71.011719 120.777344 71.238281 120.699219 71.464844 C 120.84375 71.457031 121.074219 71.496094 121.121094 71.429688 C 121.25 71.230469 121.308594 70.988281 121.394531 70.765625 C 121.246094 70.777344 121.101562 70.78125 120.925781 70.792969 Z M 65.570312 116.097656 C 65.5625 116.242188 65.496094 116.480469 65.554688 116.519531 C 65.738281 116.628906 65.976562 116.65625 66.1875 116.714844 C 66.199219 116.570312 66.269531 116.332031 66.203125 116.292969 C 66.023438 116.183594 65.789062 116.15625 65.570312 116.097656 Z M 69.90625 130.894531 C 69.683594 130.980469 69.441406 131.039062 69.246094 131.171875 C 69.175781 131.21875 69.21875 131.445312 69.207031 131.59375 C 69.433594 131.515625 69.660156 131.4375 69.878906 131.363281 C 69.890625 131.1875 69.898438 131.042969 69.90625 130.894531 Z M 72.691406 85.34375 C 72.703125 85.167969 72.710938 85.023438 72.722656 84.878906 C 72.496094 84.964844 72.253906 85.019531 72.058594 85.152344 C 71.992188 85.199219 72.035156 85.429688 72.023438 85.574219 C 72.246094 85.496094 72.476562 85.417969 72.691406 85.34375 Z M 69.070312 90.996094 C 69.296875 90.917969 69.523438 90.839844 69.742188 90.765625 C 69.753906 90.589844 69.761719 90.441406 69.769531 90.296875 C 69.546875 90.382812 69.304688 90.441406 69.105469 90.570312 C 69.039062 90.621094 69.082031 90.847656 69.070312 90.996094 Z M 188.796875 178.832031 C 188.589844 178.78125 188.371094 178.734375 188.152344 178.683594 C 188.144531 178.828125 188.074219 179.066406 188.136719 179.105469 C 188.320312 179.214844 188.554688 179.238281 188.769531 179.300781 C 188.777344 179.152344 188.785156 179.007812 188.796875 178.832031 Z M 185.617188 177.105469 C 185.4375 177 185.199219 176.972656 184.984375 176.910156 C 184.976562 177.058594 184.90625 177.292969 184.96875 177.332031 C 185.152344 177.441406 185.386719 177.46875 185.605469 177.527344 C 185.609375 177.382812 185.683594 177.144531 185.617188 177.105469 Z M 61.859375 123.113281 C 61.855469 123.027344 61.71875 122.882812 61.675781 122.898438 C 61.410156 122.992188 61.148438 123.128906 60.898438 123.246094 C 60.523438 123.5625 60.261719 123.984375 60.714844 124.226562 C 61.148438 124.460938 61.910156 123.683594 61.859375 123.113281 Z M 125.503906 73.445312 C 125.621094 73.191406 125.757812 72.933594 125.851562 72.664062 C 125.867188 72.621094 125.722656 72.488281 125.632812 72.480469 C 125.066406 72.429688 124.289062 73.195312 124.519531 73.628906 C 124.765625 74.082031 125.183594 73.816406 125.503906 73.445312 Z M 79.402344 72.023438 C 78.492188 72.046875 78.027344 72.511719 78.003906 73.421875 C 78.914062 73.398438 79.378906 72.933594 79.402344 72.023438 Z M 46.117188 98.519531 C 46.007812 98.628906 45.847656 98.722656 45.804688 98.847656 C 45.714844 99.105469 45.558594 99.484375 45.664062 99.636719 C 45.769531 99.785156 45.855469 99.847656 45.933594 99.871094 C 45.066406 100.851562 44.144531 101.273438 44.21875 102.363281 C 45.320312 102.074219 46.039062 101.480469 46.277344 99.644531 C 46.371094 99.503906 46.460938 99.339844 46.570312 99.273438 C 46.976562 99.046875 47.117188 98.621094 46.871094 98.269531 C 46.824219 98.195312 46.378906 98.425781 46.117188 98.519531 Z M 177.894531 174.964844 C 177.882812 174.878906 177.773438 174.8125 177.707031 174.734375 C 177.191406 174.632812 176.492188 175.308594 176.542969 175.875 C 176.546875 175.964844 176.648438 176.078125 176.730469 176.097656 C 177.238281 176.21875 177.941406 175.535156 177.894531 174.964844 Z M 60.246094 117.28125 C 60.261719 117.242188 60.117188 117.105469 60.03125 117.097656 C 59.460938 117.050781 58.683594 117.808594 58.917969 118.246094 C 59.160156 118.699219 59.582031 118.4375 59.898438 118.0625 C 60.019531 117.808594 60.152344 117.550781 60.246094 117.28125 Z M 102.292969 72.589844 C 101.382812 72.613281 100.917969 73.078125 100.894531 73.988281 C 101.804688 73.964844 102.269531 73.5 102.292969 72.589844 Z M 129.984375 101.675781 C 129.078125 101.699219 128.609375 102.167969 128.585938 103.074219 C 129.496094 103.054688 129.964844 102.585938 129.984375 101.675781 Z M 132.664062 111.339844 C 133.578125 111.316406 134.042969 110.851562 134.0625 109.941406 C 133.15625 109.964844 132.691406 110.429688 132.664062 111.339844 Z M 108.972656 134.847656 C 108.988281 134.933594 109.105469 135.027344 109.191406 135.035156 C 109.761719 135.085938 110.4375 134.386719 110.332031 133.871094 C 110.253906 133.808594 110.191406 133.695312 110.101562 133.683594 C 109.53125 133.636719 108.851562 134.335938 108.972656 134.847656 Z M 120.445312 122.921875 C 120.851562 122.691406 120.992188 122.269531 120.746094 121.914062 C 120.699219 121.84375 120.253906 122.074219 119.992188 122.164062 C 119.882812 122.273438 119.71875 122.367188 119.679688 122.492188 C 119.589844 122.753906 119.433594 123.132812 119.539062 123.285156 C 120.007812 123.957031 120.160156 123.082031 120.445312 122.921875 Z M 78.480469 129.925781 C 78.40625 129.859375 78.339844 129.746094 78.25 129.738281 C 77.683594 129.6875 76.996094 130.390625 77.117188 130.902344 C 77.140625 130.984375 77.253906 131.082031 77.339844 131.089844 C 77.910156 131.140625 78.585938 130.441406 78.480469 129.925781 Z M 171.292969 112.023438 C 171.347656 112.652344 171.824219 112.941406 172.503906 112.832031 C 172.53125 112.542969 172.574219 112.253906 172.578125 111.964844 C 172.582031 111.59375 172.558594 111.222656 172.542969 110.832031 C 171.742188 110.972656 171.234375 111.332031 171.292969 112.023438 Z M 48.695312 91.800781 C 48.628906 91.179688 48.148438 90.894531 47.421875 91.015625 C 47.414062 91.300781 47.402344 91.597656 47.40625 91.886719 C 47.410156 92.253906 47.433594 92.617188 47.445312 93.011719 C 48.25 92.847656 48.773438 92.5 48.695312 91.800781 Z M 83.960938 66.835938 C 84.46875 67.261719 84.972656 67.207031 85.453125 66.59375 C 85.707031 66.15625 85.804688 65.785156 85.386719 65.433594 C 84.878906 65.011719 84.355469 65.050781 83.902344 65.683594 C 83.609375 66.09375 83.539062 66.484375 83.960938 66.835938 Z M 123.648438 102.207031 C 122.472656 102.117188 121.671875 103.230469 120.738281 102.898438 C 121.3125 104.519531 121.519531 104.585938 122.652344 103.445312 C 122.964844 103.132812 123.210938 102.753906 123.648438 102.207031 Z M 125.027344 96.996094 C 125.878906 96.554688 126.578125 95.761719 127.480469 95.910156 C 127.511719 95.914062 127.792969 95.34375 127.734375 95.292969 C 127.433594 95.039062 126.949219 94.609375 126.738281 94.722656 C 125.953125 95.136719 125.101562 95.625 125.027344 96.996094 Z M 74.496094 108.238281 C 74.972656 107.03125 75.242188 106.347656 75.578125 105.492188 C 74.332031 105.808594 73.972656 106.601562 74.085938 106.515625 C 73.613281 107.722656 73.34375 108.40625 73.003906 109.261719 C 74.25 108.945312 74.613281 108.152344 74.496094 108.238281 Z M 64.578125 82.324219 C 65.289062 83.027344 66.605469 82.445312 67.230469 83.492188 C 67.617188 84.132812 68.257812 83.945312 68.6875 83.34375 C 68.992188 82.921875 69.101562 82.492188 68.484375 82.089844 C 68.203125 81.191406 67.1875 81.453125 66.359375 81.21875 C 65.433594 80.953125 65.21875 79.59375 64 79.492188 C 63.304688 79.4375 62.667969 79.109375 61.976562 79.019531 C 61.816406 79 61.511719 79.328125 61.351562 79.589844 C 61.285156 79.589844 61.230469 79.589844 61.15625 79.589844 C 61.0625 79.902344 60.972656 80.226562 60.875 80.550781 C 61.085938 80.550781 61.429688 80.628906 61.492188 80.53125 C 61.535156 80.464844 61.558594 80.382812 61.589844 80.304688 C 61.855469 80.3125 62.203125 80.171875 62.351562 80.292969 C 63.132812 80.921875 63.863281 81.617188 64.578125 82.324219 Z M 139.449219 116.789062 C 139.136719 116.699219 138.8125 116.609375 138.488281 116.519531 C 138.488281 116.730469 138.40625 117.074219 138.5 117.132812 C 138.773438 117.308594 139.125 117.367188 139.441406 117.472656 C 139.445312 117.257812 139.449219 117.046875 139.449219 116.789062 Z M 132.660156 114.6875 C 132.691406 114.355469 132.628906 114.003906 132.535156 113.683594 C 132.519531 113.628906 132.160156 113.679688 131.9375 113.679688 C 131.898438 114.019531 131.8125 114.363281 131.84375 114.691406 C 131.859375 114.851562 132.105469 115.089844 132.25 115.089844 C 132.390625 115.085938 132.644531 114.84375 132.660156 114.6875 Z M 134.648438 115.742188 C 134.3125 115.710938 133.96875 115.628906 133.636719 115.664062 C 133.480469 115.683594 133.234375 115.929688 133.234375 116.074219 C 133.234375 116.214844 133.476562 116.464844 133.632812 116.480469 C 133.964844 116.507812 134.316406 116.441406 134.636719 116.34375 C 134.691406 116.324219 134.648438 115.960938 134.648438 115.742188 Z M 93.460938 94.738281 C 93.5625 95.054688 93.625 95.402344 93.796875 95.675781 C 93.859375 95.777344 94.199219 95.691406 94.414062 95.691406 C 94.324219 95.363281 94.230469 95.042969 94.144531 94.730469 C 93.886719 94.730469 93.671875 94.734375 93.460938 94.738281 Z M 91.59375 87.058594 C 91.699219 87.378906 91.757812 87.726562 91.929688 88 C 91.992188 88.097656 92.332031 88.011719 92.546875 88.011719 C 92.457031 87.6875 92.367188 87.367188 92.277344 87.054688 C 92.019531 87.054688 91.804688 87.058594 91.59375 87.058594 Z M 121.367188 91.644531 C 121.273438 91.324219 121.183594 91 121.09375 90.6875 C 120.835938 90.6875 120.625 90.6875 120.410156 90.6875 C 120.515625 91.011719 120.574219 91.359375 120.746094 91.632812 C 120.808594 91.730469 121.152344 91.648438 121.367188 91.644531 Z M 93.265625 119.117188 C 92.992188 118.945312 92.640625 118.882812 92.320312 118.78125 C 92.320312 118.992188 92.316406 119.207031 92.316406 119.464844 C 92.628906 119.550781 92.953125 119.644531 93.273438 119.734375 C 93.277344 119.523438 93.359375 119.179688 93.265625 119.117188 Z M 116.519531 99.027344 C 116.792969 99.203125 117.144531 99.261719 117.460938 99.367188 C 117.464844 99.152344 117.464844 98.9375 117.464844 98.683594 C 117.15625 98.59375 116.832031 98.5 116.507812 98.410156 C 116.507812 98.625 116.421875 98.96875 116.519531 99.027344 Z M 98.246094 97.585938 C 98.152344 97.261719 98.0625 96.9375 97.976562 96.625 C 97.71875 96.625 97.503906 96.628906 97.292969 96.628906 C 97.394531 96.949219 97.453125 97.300781 97.628906 97.574219 C 97.691406 97.671875 98.03125 97.585938 98.246094 97.585938 Z M 174.578125 175.246094 C 174.300781 175.074219 173.953125 175.011719 173.632812 174.910156 C 173.632812 175.121094 173.628906 175.335938 173.628906 175.59375 C 173.941406 175.683594 174.265625 175.769531 174.585938 175.863281 C 174.589844 175.648438 174.671875 175.308594 174.578125 175.246094 Z M 172.734375 166.261719 C 172.738281 166.050781 172.820312 165.707031 172.726562 165.644531 C 172.449219 165.472656 172.101562 165.410156 171.78125 165.308594 C 171.777344 165.523438 171.777344 165.734375 171.773438 165.992188 C 172.089844 166.078125 172.410156 166.171875 172.734375 166.261719 Z M 133.308594 164.972656 C 133.035156 164.800781 132.6875 164.738281 132.363281 164.636719 C 132.363281 164.851562 132.359375 165.0625 132.359375 165.320312 C 132.671875 165.410156 132.996094 165.5 133.320312 165.589844 C 133.324219 165.378906 133.40625 165.035156 133.308594 164.972656 Z M 122.683594 173.640625 C 122.371094 173.550781 122.046875 173.457031 121.726562 173.367188 C 121.722656 173.582031 121.640625 173.921875 121.734375 173.984375 C 122.011719 174.160156 122.359375 174.21875 122.679688 174.320312 C 122.679688 174.109375 122.683594 173.894531 122.683594 173.640625 Z M 103.480469 39.859375 C 103.691406 39.855469 104.03125 39.933594 104.09375 39.835938 C 104.273438 39.558594 104.339844 39.210938 104.449219 38.890625 C 104.234375 38.890625 104.019531 38.894531 103.761719 38.894531 C 103.671875 39.207031 103.574219 39.53125 103.480469 39.859375 Z M 80.117188 76.910156 C 79.839844 76.738281 79.492188 76.675781 79.171875 76.574219 C 79.167969 76.789062 79.167969 77 79.164062 77.257812 C 79.476562 77.34375 79.800781 77.4375 80.125 77.527344 C 80.125 77.3125 80.210938 76.972656 80.117188 76.910156 Z M 64.628906 93.023438 C 64.628906 92.808594 64.714844 92.46875 64.617188 92.410156 C 64.339844 92.234375 63.996094 92.175781 63.675781 92.070312 C 63.671875 92.285156 63.671875 92.5 63.667969 92.753906 C 63.980469 92.839844 64.304688 92.933594 64.628906 93.023438 Z M 82.675781 85.199219 C 82.417969 85.203125 82.207031 85.203125 81.992188 85.203125 C 82.097656 85.523438 82.15625 85.875 82.328125 86.148438 C 82.390625 86.246094 82.734375 86.160156 82.945312 86.160156 C 82.855469 85.835938 82.761719 85.511719 82.675781 85.199219 Z M 68.222656 80.511719 C 68.160156 80.417969 67.816406 80.5 67.605469 80.503906 C 67.695312 80.828125 67.785156 81.152344 67.875 81.464844 C 68.132812 81.460938 68.34375 81.460938 68.558594 81.457031 C 68.453125 81.136719 68.394531 80.792969 68.222656 80.511719 Z M 72.394531 82.671875 C 72.082031 82.582031 71.761719 82.488281 71.4375 82.398438 C 71.433594 82.609375 71.351562 82.953125 71.449219 83.015625 C 71.722656 83.1875 72.070312 83.246094 72.390625 83.351562 C 72.390625 83.140625 72.394531 82.925781 72.394531 82.671875 Z M 207.039062 208.316406 C 206.949219 207.992188 206.855469 207.667969 206.769531 207.355469 C 206.511719 207.355469 206.300781 207.359375 206.082031 207.359375 C 206.1875 207.679688 206.25 208.027344 206.421875 208.300781 C 206.480469 208.398438 206.824219 208.316406 207.039062 208.316406 Z M 186 190.816406 C 186.097656 190.757812 186.019531 190.414062 186.019531 190.199219 C 185.695312 190.296875 185.371094 190.394531 185.054688 190.488281 C 185.054688 190.742188 185.050781 190.957031 185.050781 191.171875 C 185.371094 191.058594 185.722656 190.996094 186 190.816406 Z M 101.558594 39.867188 C 100.222656 39.832031 99.578125 40.476562 99.613281 41.8125 C 100.949219 41.847656 101.59375 41.203125 101.558594 39.867188 Z M 148.945312 132.480469 C 149.152344 131.714844 148.230469 130.753906 147.386719 130.886719 C 147.261719 130.90625 147.082031 131.0625 147.046875 131.183594 C 146.816406 131.941406 147.75 132.90625 148.59375 132.777344 C 148.722656 132.757812 148.828125 132.582031 148.945312 132.480469 Z M 61.554688 118.050781 C 62.890625 118.085938 63.539062 117.4375 63.5 116.105469 C 62.167969 116.066406 61.519531 116.714844 61.554688 118.050781 Z M 110.472656 48.417969 C 111.128906 48.796875 112.1875 47.714844 112.070312 46.878906 C 112.050781 46.75 111.84375 46.527344 111.785156 46.546875 C 111.398438 46.664062 111.027344 46.839844 110.664062 46.992188 C 110.140625 47.429688 109.792969 48.027344 110.472656 48.417969 Z M 101.246094 83.777344 C 101.542969 83.929688 101.972656 84.125 102.222656 84.011719 C 102.601562 83.835938 102.867188 83.417969 103.183594 83.101562 C 103.5 82.785156 103.847656 82.5 104.109375 82.144531 C 104.21875 82 104.207031 81.566406 104.121094 81.519531 C 103.820312 81.367188 103.316406 81.148438 103.152344 81.28125 C 102.464844 81.835938 101.851562 82.496094 101.253906 83.15625 C 101.140625 83.277344 101.15625 83.730469 101.246094 83.777344 Z M 142.039062 152.09375 C 141.960938 152 141.179688 152.253906 141.148438 152.417969 C 140.996094 153.253906 140.980469 154.109375 140.917969 154.957031 C 142.015625 154.949219 142.882812 154.945312 144.066406 154.9375 C 143.835938 153.308594 142.703125 152.882812 142.039062 152.09375 Z M 144.023438 148 C 144.015625 149.128906 144.007812 150.109375 144 151.246094 C 143.292969 150.933594 142.714844 150.867188 142.589844 150.589844 C 142.171875 149.671875 141.988281 148.644531 141.574219 147.726562 C 141.238281 146.980469 140.046875 146.773438 140.210938 145.671875 C 140.226562 145.546875 140.417969 145.449219 140.527344 145.339844 C 142.21875 145.632812 142.660156 147.417969 144.023438 148 " fill-opacity="1" fill-rule="nonzero"/></g></g></g></svg>